<?xml version="1.0" encoding="utf-8"?>
<!-- Generator: Adobe Illustrator 25.2.1, SVG Export Plug-In . SVG Version: 6.00 Build 0)  -->
<svg version="1.1" id="Layer_1" xmlns="http://www.w3.org/2000/svg" xmlns:xlink="http://www.w3.org/1999/xlink" x="0px" y="0px"
	 viewBox="0 0 1229 500.6" style="enable-background:new 0 0 1229 500.6;" xml:space="preserve">
<style type="text/css">
	.st0{fill:#7CE5E9;}
	.st1{fill:#FFA1F3;}
	.st2{fill:#6A43B8;}
</style>
<g>
	<path class="st0" d="M151.5,446.6v52H1.8v-52h52V160.3h-52v-52h52v-52h52.1v390.4H151.5z"/>
	<path class="st0" d="M388.9,82.2v390.4h-52.1v26h-78.1v-26h-52V368.5h52v78.1h78.1V303.5H232.8v-39h-26V82.2h52v-26h78.1v26H388.9z
		 M336.9,108.3h-78.1v143.1h78.1V108.3z"/>
	<path class="st0" d="M649.1,82.2v390.4h-52.1v26H519v-26h-52V368.5h52v78.1h78.1V303.5H493v-39h-26V82.2h52v-26h78.1v26H649.1z
		 M597.1,108.3H519v143.1h78.1V108.3z"/>
	<path class="st0" d="M1120.8,290.4v-26h-78.1v65.1h91.1v26h39v117.1h-52v26h-78.1v-26h-52v-52h52v26h78.1v-65.1h-91.1v-26h-39
		V238.4h52v-26h78.1v26h52v52H1120.8z"/>
	<g>
		<path class="st1" d="M1175,236.2v-26h-78.1v65.1h91.1v26h39v117.1h-52v26h-78.1v-26h-52v-52h52v26h78.1v-65.1h-91.1v-26h-39V184.2
			h52v-26h78.1v26h52v52H1175z"/>
		<g>
			<polygon class="st1" points="151.6,498.6 205.9,444.4 205.9,392.4 151.6,446.6 			"/>
			<path class="st2" d="M151.6,500.6c-0.3,0-0.5,0-0.8-0.2c-0.7-0.3-1.2-1-1.2-1.8v-52c0-0.5,0.2-1,0.6-1.4l54.2-54.2
				c0.6-0.6,1.4-0.7,2.2-0.4c0.7,0.3,1.2,1,1.2,1.8v52c0,0.5-0.2,1-0.6,1.4L153.1,500C152.7,500.4,152.2,500.6,151.6,500.6z
				 M153.6,447.4v46.4l50.2-50.2v-46.4L153.6,447.4z"/>
		</g>
		<g>
			<polygon class="st1" points="206.9,82.2 261.2,28 313.2,28 259,82.2 			"/>
			<path class="st2" d="M259,84.2h-52c-0.8,0-1.5-0.5-1.8-1.2c-0.3-0.7-0.1-1.6,0.4-2.2l54.2-54.2c0.4-0.4,0.9-0.6,1.4-0.6h52
				c0.8,0,1.5,0.5,1.8,1.2c0.3,0.7,0.1,1.6-0.4,2.2l-54.2,54.2C260,84,259.5,84.2,259,84.2z M211.8,80.2h46.4L308.4,30H262
				L211.8,80.2z"/>
		</g>
		<g>
			<polygon class="st1" points="313.2,2 259,56.2 337.1,56.2 391.3,2 			"/>
			<path class="st2" d="M337.1,58.2H259c-0.8,0-1.5-0.5-1.8-1.2c-0.3-0.7-0.1-1.6,0.4-2.2l54.2-54.2c0.4-0.4,0.9-0.6,1.4-0.6h78.1
				c0.8,0,1.5,0.5,1.8,1.2c0.3,0.7,0.1,1.6-0.4,2.2l-54.2,54.2C338.1,58,337.6,58.2,337.1,58.2z M263.8,54.2h72.4L386.5,4H314
				L263.8,54.2z"/>
		</g>
		<g>
			<polygon class="st1" points="389.1,82.2 443.3,28 391.3,28 337.1,82.2 			"/>
			<path class="st2" d="M389.1,84.2h-52.1c-0.8,0-1.5-0.5-1.8-1.2c-0.3-0.7-0.1-1.6,0.4-2.2l54.2-54.2c0.4-0.4,0.9-0.6,1.4-0.6h52.1
				c0.8,0,1.5,0.5,1.8,1.2c0.3,0.7,0.1,1.6-0.4,2.2l-54.2,54.2C390.2,84,389.7,84.2,389.1,84.2z M341.9,80.2h46.4L438.5,30h-46.4
				L341.9,80.2z"/>
		</g>
		<g>
			<polygon class="st1" points="391.3,2 337.1,56.2 337.1,82.2 391.3,28 			"/>
			<path class="st2" d="M337.1,84.2c-0.3,0-0.5,0-0.8-0.2c-0.7-0.3-1.2-1-1.2-1.8v-26c0-0.5,0.2-1,0.6-1.4l54.2-54.2
				c0.6-0.6,1.4-0.7,2.2-0.4c0.7,0.3,1.2,1,1.2,1.8v26c0,0.5-0.2,1-0.6,1.4l-54.2,54.2C338.1,84,337.6,84.2,337.1,84.2z M339.1,57
				v20.4l50.2-50.2V6.8L339.1,57z"/>
		</g>
		<g>
			<polygon class="st1" points="391.3,444.4 337.1,498.6 337.1,446.6 			"/>
			<path class="st2" d="M337.1,500.6c-0.3,0-0.5,0-0.8-0.2c-0.7-0.3-1.2-1-1.2-1.8v-52c0-1.1,0.8-2,1.9-2l54.2-2.2
				c0.8,0,1.6,0.4,1.9,1.2c0.3,0.8,0.2,1.6-0.4,2.2L338.5,500C338.1,500.4,337.6,500.6,337.1,500.6z M339.1,448.5v45.3l47.2-47.2
				L339.1,448.5z"/>
		</g>
		<g>
			<polygon class="st1" points="259,446.6 313.2,392.4 313.2,314.3 259,368.5 			"/>
			<path class="st2" d="M259,448.6c-0.3,0-0.5,0-0.8-0.2c-0.7-0.3-1.2-1-1.2-1.8v-78.1c0-0.5,0.2-1,0.6-1.4l54.2-54.2
				c0.6-0.6,1.4-0.7,2.2-0.4c0.7,0.3,1.2,1,1.2,1.8v78.1c0,0.5-0.2,1-0.6,1.4L260.4,448C260,448.4,259.5,448.6,259,448.6z
				 M261,369.3v72.4l50.2-50.2v-72.4L261,369.3z"/>
		</g>
		<g>
			<polygon class="st1" points="206.9,368.5 261.2,314.3 313.2,314.3 259,368.5 			"/>
			<path class="st2" d="M259,370.5h-52c-0.8,0-1.5-0.5-1.8-1.2c-0.3-0.7-0.1-1.6,0.4-2.2l54.2-54.2c0.4-0.4,0.9-0.6,1.4-0.6h52
				c0.8,0,1.5,0.5,1.8,1.2c0.3,0.7,0.1,1.6-0.4,2.2l-54.2,54.2C260,370.3,259.5,370.5,259,370.5z M211.8,366.5h46.4l50.2-50.2H262
				L211.8,366.5z"/>
		</g>
		<g>
			<polygon class="st1" points="259,446.6 337.1,446.6 391.3,392.4 313.2,392.4 			"/>
			<path class="st2" d="M337.1,448.6H259c-0.8,0-1.5-0.5-1.8-1.2c-0.3-0.7-0.1-1.6,0.4-2.2l54.2-54.2c0.4-0.4,0.9-0.6,1.4-0.6h78.1
				c0.8,0,1.5,0.5,1.8,1.2c0.3,0.7,0.1,1.6-0.4,2.2L338.5,448C338.1,448.4,337.6,448.6,337.1,448.6z M263.8,444.6h72.4l50.2-50.2
				H314L263.8,444.6z"/>
		</g>
		<g>
			<polygon class="st1" points="259,251.4 313.2,197.2 311.7,71 259,108.3 			"/>
			<path class="st2" d="M259,253.4c-0.3,0-0.5,0-0.8-0.2c-0.7-0.3-1.2-1-1.2-1.8V108.3c0-0.6,0.3-1.3,0.8-1.6l52.7-37.3
				c0.6-0.4,1.4-0.5,2.1-0.1c0.7,0.3,1.1,1,1.1,1.8l1.5,126.2c0,0.5-0.2,1.1-0.6,1.4l-54.2,54.2C260,253.2,259.5,253.4,259,253.4z
				 M261,109.3v137.3l50.2-50.2l-1.4-121.5L261,109.3z"/>
		</g>
		<g>
			<polygon class="st1" points="337.1,251.4 259,251.4 313.2,197.2 391.3,197.2 			"/>
			<path class="st2" d="M337.1,253.4H259c-0.8,0-1.5-0.5-1.8-1.2c-0.3-0.7-0.1-1.6,0.4-2.2l54.2-54.2c0.4-0.4,0.9-0.6,1.4-0.6h78.1
				c0.8,0,1.5,0.5,1.8,1.2c0.3,0.7,0.1,1.6-0.4,2.2l-54.2,54.2C338.1,253.2,337.6,253.4,337.1,253.4z M263.8,249.4h72.4l50.2-50.2
				H314L263.8,249.4z"/>
		</g>
		<g>
			<polygon class="st1" points="389.1,472.6 443.3,418.4 443.3,28 389.1,82.2 			"/>
			<path class="st2" d="M389.1,474.6c-0.3,0-0.5,0-0.8-0.2c-0.7-0.3-1.2-1-1.2-1.8V82.2c0-0.5,0.2-1,0.6-1.4l54.2-54.2
				c0.6-0.6,1.4-0.7,2.2-0.4c0.7,0.3,1.2,1,1.2,1.8v390.4c0,0.5-0.2,1-0.6,1.4L390.5,474C390.2,474.4,389.6,474.6,389.1,474.6z
				 M391.1,83.1v384.7l50.2-50.2V32.8L391.1,83.1z"/>
		</g>
		<g>
			<polygon class="st1" points="54,56.2 2,108.3 54,108.3 106.1,56.2 			"/>
			<path class="st2" d="M54,110.3H2c-0.8,0-1.5-0.5-1.8-1.2c-0.3-0.7-0.1-1.6,0.4-2.2l52-52c0.4-0.4,0.9-0.6,1.4-0.6h52.1
				c0.8,0,1.5,0.5,1.8,1.2c0.3,0.7,0.1,1.6-0.4,2.2l-52.1,52C55.1,110,54.6,110.3,54,110.3z M6.8,106.3h46.4l48.1-48H54.9L6.8,106.3
				z"/>
		</g>
		<g>
			<polygon class="st1" points="160.3,2 106.1,56.2 54,56.2 108.3,2 			"/>
			<path class="st2" d="M106.1,58.2H54c-0.8,0-1.5-0.5-1.8-1.2c-0.3-0.7-0.1-1.6,0.4-2.2l54.2-54.2c0.4-0.4,0.9-0.6,1.4-0.6h52.1
				c0.8,0,1.5,0.5,1.8,1.2c0.3,0.7,0.1,1.6-0.4,2.2l-54.2,54.2C107.1,58,106.6,58.2,106.1,58.2z M58.9,54.2h46.4L155.5,4h-46.4
				L58.9,54.2z"/>
		</g>
		<g>
			<polygon class="st1" points="106.1,446.6 160.3,392.4 160.3,2 106.1,56.2 			"/>
			<path class="st2" d="M106.1,448.6c-0.3,0-0.5,0-0.8-0.2c-0.7-0.3-1.2-1-1.2-1.8V56.2c0-0.5,0.2-1,0.6-1.4l54.2-54.2
				c0.6-0.6,1.4-0.7,2.2-0.4c0.7,0.3,1.2,1,1.2,1.8v390.4c0,0.5-0.2,1-0.6,1.4L107.5,448C107.1,448.4,106.6,448.6,106.1,448.6z
				 M108.1,57v384.7l50.2-50.2V6.8L108.1,57z"/>
		</g>
		<g>
			<polygon class="st1" points="151.6,446.6 205.9,392.4 160.3,392.4 106.1,446.6 			"/>
			<path class="st2" d="M151.6,448.6h-45.5c-0.8,0-1.5-0.5-1.8-1.2c-0.3-0.7-0.1-1.6,0.4-2.2l54.2-54.2c0.4-0.4,0.9-0.6,1.4-0.6
				h45.5c0.8,0,1.5,0.5,1.8,1.2c0.3,0.7,0.1,1.6-0.4,2.2L153.1,448C152.7,448.4,152.2,448.6,151.6,448.6z M110.9,444.6h39.9
				l50.2-50.2h-39.9L110.9,444.6z"/>
		</g>
		<g>
			<polygon class="st1" points="151.6,498.6 151.6,446.6 205.9,392.4 205.9,444.4 			"/>
			<path class="st2" d="M151.6,500.6c-0.3,0-0.5,0-0.8-0.2c-0.7-0.3-1.2-1-1.2-1.8v-52c0-0.5,0.2-1,0.6-1.4l54.2-54.2
				c0.6-0.6,1.4-0.7,2.2-0.4c0.7,0.3,1.2,1,1.2,1.8v52c0,0.5-0.2,1-0.6,1.4L153.1,500C152.7,500.4,152.2,500.6,151.6,500.6z
				 M153.6,447.4v46.4l50.2-50.2v-46.4L153.6,447.4z"/>
		</g>
		<g>
			<polygon class="st1" points="733.7,82.2 787.9,28 839.9,28 785.7,82.2 			"/>
			<path class="st2" d="M785.7,84.2h-52c-0.8,0-1.5-0.5-1.8-1.2c-0.3-0.7-0.1-1.6,0.4-2.2l54.2-54.2c0.4-0.4,0.9-0.6,1.4-0.6h52
				c0.8,0,1.5,0.5,1.8,1.2c0.3,0.7,0.1,1.6-0.4,2.2l-54.2,54.2C786.8,84,786.3,84.2,785.7,84.2z M738.5,80.2h46.4L835.1,30h-46.4
				L738.5,80.2z"/>
		</g>
		<g>
			<polygon class="st1" points="863.8,82.2 918,28 918,2 863.8,56.2 			"/>
			<path class="st2" d="M863.8,84.2c-0.3,0-0.5,0-0.8-0.2c-0.7-0.3-1.2-1-1.2-1.8v-26c0-0.5,0.2-1,0.6-1.4l54.2-54.2
				c0.6-0.6,1.4-0.7,2.2-0.4c0.7,0.3,1.2,1,1.2,1.8v26c0,0.5-0.2,1-0.6,1.4l-54.2,54.2C864.8,84,864.3,84.2,863.8,84.2z M865.8,57
				v20.4L916,27.2V6.8L865.8,57z"/>
		</g>
		<g>
			<polygon class="st1" points="915.8,82.2 970.1,28 918,28 863.8,82.2 			"/>
			<path class="st2" d="M915.8,84.2h-52c-0.8,0-1.5-0.5-1.8-1.2c-0.3-0.7-0.1-1.6,0.4-2.2l54.2-54.2c0.4-0.4,0.9-0.6,1.4-0.6h52
				c0.8,0,1.5,0.5,1.8,1.2c0.3,0.7,0.1,1.6-0.4,2.2l-54.2,54.2C916.9,84,916.4,84.2,915.8,84.2z M868.6,80.2H915L965.2,30h-46.4
				L868.6,80.2z"/>
		</g>
		<g>
			<polygon class="st1" points="863.8,498.6 918,444.4 918,418.4 863.8,472.6 			"/>
			<path class="st2" d="M863.8,500.6c-0.3,0-0.5,0-0.8-0.2c-0.7-0.3-1.2-1-1.2-1.8v-26c0-0.5,0.2-1,0.6-1.4l54.2-54.2
				c0.6-0.6,1.4-0.7,2.2-0.4c0.7,0.3,1.2,1,1.2,1.8v26c0,0.5-0.2,1-0.6,1.4L865.2,500C864.8,500.4,864.3,500.6,863.8,500.6z
				 M865.8,473.4v20.4l50.2-50.2v-20.4L865.8,473.4z"/>
		</g>
		<g>
			<polygon class="st1" points="785.7,446.6 839.9,392.4 918,392.4 863.8,446.6 			"/>
			<path class="st2" d="M863.8,448.6h-78.1c-0.8,0-1.5-0.5-1.8-1.2c-0.3-0.7-0.1-1.6,0.4-2.2l54.2-54.2c0.4-0.4,0.9-0.6,1.4-0.6H918
				c0.8,0,1.5,0.5,1.8,1.2c0.3,0.7,0.1,1.6-0.4,2.2L865.2,448C864.8,448.4,864.3,448.6,863.8,448.6z M790.6,444.6H863l50.2-50.2
				h-72.4L790.6,444.6z"/>
		</g>
		<g>
			<polygon class="st1" points="785.7,108.3 839.9,54 839.9,392.4 785.7,446.6 			"/>
			<path class="st2" d="M785.7,448.6c-0.3,0-0.5,0-0.8-0.2c-0.7-0.3-1.2-1-1.2-1.8V108.3c0-0.5,0.2-1,0.6-1.4l54.2-54.2
				c0.6-0.6,1.4-0.7,2.2-0.4c0.7,0.3,1.2,1,1.2,1.8v338.3c0,0.5-0.2,1-0.6,1.4L787.1,448C786.8,448.4,786.3,448.6,785.7,448.6z
				 M787.7,109.1v332.7l50.2-50.2V58.9L787.7,109.1z"/>
		</g>
		<g>
			<polygon class="st1" points="915.8,472.6 970.1,418.4 970.1,28 915.8,82.2 			"/>
			<path class="st2" d="M915.8,474.6c-0.3,0-0.5,0-0.8-0.2c-0.7-0.3-1.2-1-1.2-1.8V82.2c0-0.5,0.2-1,0.6-1.4l54.2-54.2
				c0.6-0.6,1.4-0.7,2.2-0.4c0.7,0.3,1.2,1,1.2,1.8v390.4c0,0.5-0.2,1-0.6,1.4L917.3,474C916.9,474.4,916.4,474.6,915.8,474.6z
				 M917.8,83.1v384.7l50.2-50.2V32.8L917.8,83.1z"/>
		</g>
		<g>
			<polygon class="st1" points="863.8,56.2 785.7,56.2 839.9,2 918,2 			"/>
			<path class="st2" d="M863.8,58.2h-78.1c-0.8,0-1.5-0.5-1.8-1.2c-0.3-0.7-0.1-1.6,0.4-2.2l54.2-54.2c0.4-0.4,0.9-0.6,1.4-0.6H918
				c0.8,0,1.5,0.5,1.8,1.2c0.3,0.7,0.1,1.6-0.4,2.2l-54.2,54.2C864.8,58,864.3,58.2,863.8,58.2z M790.6,54.2H863L913.2,4h-72.4
				L790.6,54.2z"/>
		</g>
		<g>
			<path class="st0" d="M389.1,82.2v390.4h-52.1v26H259v-26h-52V368.5h52v78.1h78.1V303.5H233v-39h-26V82.2h52v-26h78.1v26H389.1z
				 M337.1,108.3H259v143.1h78.1V108.3z"/>
			<path class="st2" d="M337.1,500.6H259c-1.1,0-2-0.9-2-2v-24h-50c-1.1,0-2-0.9-2-2V368.5c0-1.1,0.9-2,2-2h52c1.1,0,2,0.9,2,2v76.1
				h74.1V305.5H233c-1.1,0-2-0.9-2-2v-37h-24c-1.1,0-2-0.9-2-2V82.2c0-1.1,0.9-2,2-2h50v-24c0-1.1,0.9-2,2-2h78.1c1.1,0,2,0.9,2,2
				v24h50.1c1.1,0,2,0.9,2,2v390.4c0,1.1-0.9,2-2,2h-50.1v24C339.1,499.7,338.2,500.6,337.1,500.6z M261,496.6h74.1v-24
				c0-1.1,0.9-2,2-2h50.1V84.2h-50.1c-1.1,0-2-0.9-2-2v-24H261v24c0,1.1-0.9,2-2,2h-50v178.2h24c1.1,0,2,0.9,2,2v37h102.1
				c1.1,0,2,0.9,2,2v143.1c0,1.1-0.9,2-2,2H259c-1.1,0-2-0.9-2-2v-76.1h-48v100.1h50c1.1,0,2,0.9,2,2V496.6z M337.1,253.4H259
				c-1.1,0-2-0.9-2-2V108.3c0-1.1,0.9-2,2-2h78.1c1.1,0,2,0.9,2,2v143.1C339.1,252.5,338.2,253.4,337.1,253.4z M261,249.4h74.1
				V110.3H261V249.4z"/>
		</g>
		<g>
			<path class="st0" d="M151.6,446.6v52H2v-52h52V160.3H2v-52h52v-52h52.1v390.4H151.6z"/>
			<path class="st2" d="M151.6,500.6H2c-1.1,0-2-0.9-2-2v-52c0-1.1,0.9-2,2-2h50V162.3H2c-1.1,0-2-0.9-2-2v-52c0-1.1,0.9-2,2-2h50
				v-50c0-1.1,0.9-2,2-2h52.1c1.1,0,2,0.9,2,2v388.4h43.5c1.1,0,2,0.9,2,2v52C153.6,499.7,152.7,500.6,151.6,500.6z M4,496.6h145.6
				v-48h-43.5c-1.1,0-2-0.9-2-2V58.2H56v50c0,1.1-0.9,2-2,2H4v48h50c1.1,0,2,0.9,2,2v286.3c0,1.1-0.9,2-2,2H4V496.6z"/>
		</g>
		<g>
			<path class="st0" d="M915.8,82.2v390.4h-52v26h-78.1v-26h-52V82.2h52v-26h78.1v26H915.8z M863.8,108.3h-78.1v338.3h78.1V108.3z"
				/>
			<path class="st2" d="M863.8,500.6h-78.1c-1.1,0-2-0.9-2-2v-24h-50c-1.1,0-2-0.9-2-2V82.2c0-1.1,0.9-2,2-2h50v-24c0-1.1,0.9-2,2-2
				h78.1c1.1,0,2,0.9,2,2v24h50c1.1,0,2,0.9,2,2v390.4c0,1.1-0.9,2-2,2h-50v24C865.8,499.7,864.9,500.6,863.8,500.6z M787.7,496.6
				h74.1v-24c0-1.1,0.9-2,2-2h50V84.2h-50c-1.1,0-2-0.9-2-2v-24h-74.1v24c0,1.1-0.9,2-2,2h-50v386.4h50c1.1,0,2,0.9,2,2V496.6z
				 M863.8,448.6h-78.1c-1.1,0-2-0.9-2-2V108.3c0-1.1,0.9-2,2-2h78.1c1.1,0,2,0.9,2,2v338.3C865.8,447.7,864.9,448.6,863.8,448.6z
				 M787.7,444.6h74.1V110.3h-74.1V444.6z"/>
		</g>
		<g>
			<polygon class="st1" points="990.6,238.4 1044.9,184.2 1096.9,184.2 1042.7,238.4 			"/>
			<path class="st2" d="M1042.7,240.4h-52c-0.8,0-1.5-0.5-1.8-1.2c-0.3-0.7-0.1-1.6,0.4-2.2l54.2-54.2c0.4-0.4,0.9-0.6,1.4-0.6h52
				c0.8,0,1.5,0.5,1.8,1.2c0.3,0.7,0.1,1.6-0.4,2.2l-54.2,54.2C1043.7,240.2,1043.2,240.4,1042.7,240.4z M995.5,236.4h46.4
				l50.2-50.2h-46.4L995.5,236.4z"/>
		</g>
		<g>
			<polygon class="st1" points="1120.8,238.4 1175,184.2 1175,158.2 1120.8,212.4 			"/>
			<path class="st2" d="M1120.8,240.4c-0.3,0-0.5,0-0.8-0.2c-0.7-0.3-1.2-1-1.2-1.8v-26c0-0.5,0.2-1,0.6-1.4l54.2-54.2
				c0.6-0.6,1.4-0.7,2.2-0.4c0.7,0.3,1.2,1,1.2,1.8v26c0,0.5-0.2,1-0.6,1.4l-54.2,54.2C1121.8,240.2,1121.3,240.4,1120.8,240.4z
				 M1122.8,213.2v20.4l50.2-50.2V163L1122.8,213.2z"/>
		</g>
		<g>
			<polygon class="st1" points="1172.8,238.4 1227,184.2 1175,184.2 1120.8,238.4 			"/>
			<path class="st2" d="M1172.8,240.4h-52c-0.8,0-1.5-0.5-1.8-1.2c-0.3-0.7-0.1-1.6,0.4-2.2l54.2-54.2c0.4-0.4,0.9-0.6,1.4-0.6h52
				c0.8,0,1.5,0.5,1.8,1.2c0.3,0.7,0.1,1.6-0.4,2.2l-54.2,54.2C1173.9,240.2,1173.4,240.4,1172.8,240.4z M1125.6,236.4h46.4
				l50.2-50.2h-46.4L1125.6,236.4z"/>
		</g>
		<g>
			<polygon class="st1" points="1042.7,329.5 1096.9,275.3 1096.9,210.2 1042.7,264.4 			"/>
			<path class="st2" d="M1042.7,331.5c-0.3,0-0.5,0-0.8-0.2c-0.7-0.3-1.2-1-1.2-1.8v-65.1c0-0.5,0.2-1,0.6-1.4l54.2-54.2
				c0.6-0.6,1.4-0.7,2.2-0.4c0.7,0.3,1.2,1,1.2,1.8v65.1c0,0.5-0.2,1-0.6,1.4l-54.2,54.2C1043.7,331.3,1043.2,331.5,1042.7,331.5z
				 M1044.7,265.2v59.4l50.2-50.2V215L1044.7,265.2z"/>
		</g>
		<g>
			<polygon class="st1" points="1133.8,329.5 1188,275.3 1096.9,275.3 1042.7,329.5 			"/>
			<path class="st2" d="M1133.8,331.5h-91.1c-0.8,0-1.5-0.5-1.8-1.2c-0.3-0.7-0.1-1.6,0.4-2.2l54.2-54.2c0.4-0.4,0.9-0.6,1.4-0.6
				h91.1c0.8,0,1.5,0.5,1.8,1.2c0.3,0.7,0.1,1.6-0.4,2.2l-54.2,54.2C1134.8,331.3,1134.3,331.5,1133.8,331.5z M1047.5,327.5h85.4
				l50.2-50.2h-85.4L1047.5,327.5z"/>
		</g>
		<g>
			<polygon class="st1" points="1133.8,355.5 1188,301.3 1188,275.3 1133.8,329.5 			"/>
			<path class="st2" d="M1133.8,357.5c-0.3,0-0.5,0-0.8-0.2c-0.7-0.3-1.2-1-1.2-1.8v-26c0-0.5,0.2-1,0.6-1.4l54.2-54.2
				c0.6-0.6,1.4-0.7,2.2-0.4c0.7,0.3,1.2,1,1.2,1.8v26c0,0.5-0.2,1-0.6,1.4l-54.2,54.2C1134.8,357.3,1134.3,357.5,1133.8,357.5z
				 M1135.8,330.3v20.4l50.2-50.2v-20.4L1135.8,330.3z"/>
		</g>
		<g>
			<polygon class="st1" points="1172.8,355.5 1227,301.3 1188,301.3 1133.8,355.5 			"/>
			<path class="st2" d="M1172.8,357.5h-39c-0.8,0-1.5-0.5-1.8-1.2c-0.3-0.7-0.1-1.6,0.4-2.2l54.2-54.2c0.4-0.4,0.9-0.6,1.4-0.6h39
				c0.8,0,1.5,0.5,1.8,1.2c0.3,0.7,0.1,1.6-0.4,2.2l-54.2,54.2C1173.9,357.3,1173.4,357.5,1172.8,357.5z M1138.6,353.5h33.4
				l50.2-50.2h-33.4L1138.6,353.5z"/>
		</g>
		<g>
			<polygon class="st1" points="1120.8,498.6 1175,444.4 1175,418.4 1120.8,472.6 			"/>
			<path class="st2" d="M1120.8,500.6c-0.3,0-0.5,0-0.8-0.2c-0.7-0.3-1.2-1-1.2-1.8v-26c0-0.5,0.2-1,0.6-1.4l54.2-54.2
				c0.6-0.6,1.4-0.7,2.2-0.4c0.7,0.3,1.2,1,1.2,1.8v26c0,0.5-0.2,1-0.6,1.4l-54.2,54.2C1121.8,500.4,1121.3,500.6,1120.8,500.6z
				 M1122.8,473.4v20.4l50.2-50.2v-20.4L1122.8,473.4z"/>
		</g>
		<g>
			<polygon class="st1" points="1042.7,420.6 1096.9,366.3 1044.9,366.3 990.6,420.6 			"/>
			<path class="st2" d="M1042.7,422.6h-52c-0.8,0-1.5-0.5-1.8-1.2c-0.3-0.7-0.1-1.6,0.4-2.2l54.2-54.2c0.4-0.4,0.9-0.6,1.4-0.6h52
				c0.8,0,1.5,0.5,1.8,1.2c0.3,0.7,0.1,1.6-0.4,2.2l-54.2,54.2C1043.7,422.3,1043.2,422.6,1042.7,422.6z M995.5,418.6h46.4
				l50.2-50.2h-46.4L995.5,418.6z"/>
		</g>
		<g>
			<polygon class="st1" points="1042.7,446.6 1042.7,420.6 1096.9,366.3 1096.9,392.4 			"/>
			<path class="st2" d="M1042.7,448.6c-0.3,0-0.5,0-0.8-0.2c-0.7-0.3-1.2-1-1.2-1.8v-26c0-0.5,0.2-1,0.6-1.4l54.2-54.2
				c0.6-0.6,1.4-0.7,2.2-0.4c0.7,0.3,1.2,1,1.2,1.8v26c0,0.5-0.2,1-0.6,1.4l-54.2,54.2C1043.7,448.4,1043.2,448.6,1042.7,448.6z
				 M1044.7,421.4v20.4l50.2-50.2v-20.4L1044.7,421.4z"/>
		</g>
		<g>
			<polygon class="st1" points="1120.8,446.6 1172.8,391.4 1096.9,392.4 1042.7,446.6 			"/>
			<path class="st2" d="M1120.8,448.6h-78.1c-0.8,0-1.5-0.5-1.8-1.2c-0.3-0.7-0.1-1.6,0.4-2.2l54.2-54.2c0.4-0.4,0.9-0.6,1.4-0.6
				l75.9-0.9c0.8,0,1.5,0.5,1.9,1.2c0.3,0.7,0.2,1.6-0.4,2.2l-52,55.1C1121.9,448.4,1121.3,448.6,1120.8,448.6z M1047.5,444.6h72.4
				l48.2-51.1l-70.4,0.9L1047.5,444.6z"/>
		</g>
		<g>
			<polygon class="st1" points="1120.8,212.4 1042.7,212.4 1096.9,158.2 1175,158.2 			"/>
			<path class="st2" d="M1120.8,214.4h-78.1c-0.8,0-1.5-0.5-1.8-1.2c-0.3-0.7-0.1-1.6,0.4-2.2l54.2-54.2c0.4-0.4,0.9-0.6,1.4-0.6
				h78.1c0.8,0,1.5,0.5,1.8,1.2c0.3,0.7,0.1,1.6-0.4,2.2l-54.2,54.2C1121.8,214.2,1121.3,214.4,1120.8,214.4z M1047.5,210.4h72.4
				l50.2-50.2h-72.4L1047.5,210.4z"/>
		</g>
		<g>
			<polygon class="st1" points="1172.8,472.6 1227,418.4 1227,301.3 1172.8,355.5 			"/>
			<path class="st2" d="M1172.8,474.6c-0.3,0-0.5,0-0.8-0.2c-0.7-0.3-1.2-1-1.2-1.8V355.5c0-0.5,0.2-1,0.6-1.4l54.2-54.2
				c0.6-0.6,1.4-0.7,2.2-0.4c0.7,0.3,1.2,1,1.2,1.8v117.1c0,0.5-0.2,1-0.6,1.4l-54.2,54.2C1173.9,474.4,1173.3,474.6,1172.8,474.6z
				 M1174.8,356.3v111.5l50.2-50.2V306.1L1174.8,356.3z"/>
		</g>
		<g>
			<polygon class="st1" points="1172.8,290.4 1227,236.2 1227,184.2 1172.8,238.4 			"/>
			<path class="st2" d="M1172.8,292.4c-0.3,0-0.5,0-0.8-0.2c-0.7-0.3-1.2-1-1.2-1.8v-52c0-0.5,0.2-1,0.6-1.4l54.2-54.2
				c0.6-0.6,1.4-0.7,2.2-0.4c0.7,0.3,1.2,1,1.2,1.8v52c0,0.5-0.2,1-0.6,1.4l-54.2,54.2C1173.9,292.2,1173.3,292.4,1172.8,292.4z
				 M1174.8,239.2v46.4l50.2-50.2V189L1174.8,239.2z"/>
		</g>
		<g>
			<path class="st0" d="M1120.8,290.4v-26h-78.1v65.1h91.1v26h39v117.1h-52v26h-78.1v-26h-52v-52h52v26h78.1v-65.1h-91.1v-26h-39
				V238.4h52v-26h78.1v26h52v52H1120.8z"/>
			<path class="st2" d="M1120.8,500.6h-78.1c-1.1,0-2-0.9-2-2v-24h-50c-1.1,0-2-0.9-2-2v-52c0-1.1,0.9-2,2-2h52c1.1,0,2,0.9,2,2v24
				h74.1v-61.1h-89.1c-1.1,0-2-0.9-2-2v-24h-37c-1.1,0-2-0.9-2-2V238.4c0-1.1,0.9-2,2-2h50v-24c0-1.1,0.9-2,2-2h78.1
				c1.1,0,2,0.9,2,2v24h50c1.1,0,2,0.9,2,2v52c0,1.1-0.9,2-2,2h-52c-1.1,0-2-0.9-2-2v-24h-74.1v61.1h89.1c1.1,0,2,0.9,2,2v24h37
				c1.1,0,2,0.9,2,2v117.1c0,1.1-0.9,2-2,2h-50v24C1122.8,499.7,1121.9,500.6,1120.8,500.6z M1044.7,496.6h74.1v-24c0-1.1,0.9-2,2-2
				h50V357.5h-37c-1.1,0-2-0.9-2-2v-24h-89.1c-1.1,0-2-0.9-2-2v-65.1c0-1.1,0.9-2,2-2h78.1c1.1,0,2,0.9,2,2v24h48v-48h-50
				c-1.1,0-2-0.9-2-2v-24h-74.1v24c0,1.1-0.9,2-2,2h-50v113.1h37c1.1,0,2,0.9,2,2v24h89.1c1.1,0,2,0.9,2,2v65.1c0,1.1-0.9,2-2,2
				h-78.1c-1.1,0-2-0.9-2-2v-24h-48v48h50c1.1,0,2,0.9,2,2V496.6z"/>
		</g>
		<g>
			<polygon class="st1" points="467,82.2 521.2,28 573.2,28 519,82.2 			"/>
			<path class="st2" d="M519,84.2h-52c-0.8,0-1.5-0.5-1.8-1.2c-0.3-0.7-0.1-1.6,0.4-2.2l54.2-54.2c0.4-0.4,0.9-0.6,1.4-0.6h52
				c0.8,0,1.5,0.5,1.8,1.2c0.3,0.7,0.1,1.6-0.4,2.2l-54.2,54.2C520,84,519.5,84.2,519,84.2z M471.8,80.2h46.4L568.4,30H522
				L471.8,80.2z"/>
		</g>
		<g>
			<polygon class="st1" points="573.2,2 519,56.2 597.1,56.2 651.3,2 			"/>
			<path class="st2" d="M597.1,58.2H519c-0.8,0-1.5-0.5-1.8-1.2c-0.3-0.7-0.1-1.6,0.4-2.2l54.2-54.2c0.4-0.4,0.9-0.6,1.4-0.6h78.1
				c0.8,0,1.5,0.5,1.8,1.2c0.3,0.7,0.1,1.6-0.4,2.2l-54.2,54.2C598.1,58,597.6,58.2,597.1,58.2z M523.8,54.2h72.4L646.5,4H574
				L523.8,54.2z"/>
		</g>
		<g>
			<polygon class="st1" points="649.2,82.2 703.4,28 651.3,28 597.1,82.2 			"/>
			<path class="st2" d="M649.2,84.2h-52.1c-0.8,0-1.5-0.5-1.8-1.2c-0.3-0.7-0.1-1.6,0.4-2.2l54.2-54.2c0.4-0.4,0.9-0.6,1.4-0.6h52.1
				c0.8,0,1.5,0.5,1.8,1.2c0.3,0.7,0.1,1.6-0.4,2.2l-54.2,54.2C650.2,84,649.7,84.2,649.2,84.2z M601.9,80.2h46.4L698.5,30h-46.4
				L601.9,80.2z"/>
		</g>
		<g>
			<polygon class="st1" points="651.3,2 597.1,56.2 597.1,82.2 651.3,28 			"/>
			<path class="st2" d="M597.1,84.2c-0.3,0-0.5,0-0.8-0.2c-0.7-0.3-1.2-1-1.2-1.8v-26c0-0.5,0.2-1,0.6-1.4l54.2-54.2
				c0.6-0.6,1.4-0.7,2.2-0.4c0.7,0.3,1.2,1,1.2,1.8v26c0,0.5-0.2,1-0.6,1.4l-54.2,54.2C598.1,84,597.6,84.2,597.1,84.2z M599.1,57
				v20.4l50.2-50.2V6.8L599.1,57z"/>
		</g>
		<g>
			<polygon class="st1" points="651.3,444.4 597.1,498.6 597.1,446.6 			"/>
			<path class="st2" d="M597.1,500.6c-0.3,0-0.5,0-0.8-0.2c-0.7-0.3-1.2-1-1.2-1.8v-52c0-1.1,0.8-2,1.9-2l54.2-2.2
				c0.8,0,1.6,0.4,1.9,1.2c0.3,0.8,0.2,1.6-0.4,2.2L598.5,500C598.1,500.4,597.6,500.6,597.1,500.6z M599.1,448.5v45.3l47.2-47.2
				L599.1,448.5z"/>
		</g>
		<g>
			<polygon class="st1" points="519,446.6 573.2,392.4 573.2,314.3 519,368.5 			"/>
			<path class="st2" d="M519,448.6c-0.3,0-0.5,0-0.8-0.2c-0.7-0.3-1.2-1-1.2-1.8v-78.1c0-0.5,0.2-1,0.6-1.4l54.2-54.2
				c0.6-0.6,1.4-0.7,2.2-0.4c0.7,0.3,1.2,1,1.2,1.8v78.1c0,0.5-0.2,1-0.6,1.4L520.4,448C520,448.4,519.5,448.6,519,448.6z
				 M521,369.3v72.4l50.2-50.2v-72.4L521,369.3z"/>
		</g>
		<g>
			<polygon class="st1" points="467,368.5 521.2,314.3 573.2,314.3 519,368.5 			"/>
			<path class="st2" d="M519,370.5h-52c-0.8,0-1.5-0.5-1.8-1.2c-0.3-0.7-0.1-1.6,0.4-2.2l54.2-54.2c0.4-0.4,0.9-0.6,1.4-0.6h52
				c0.8,0,1.5,0.5,1.8,1.2c0.3,0.7,0.1,1.6-0.4,2.2l-54.2,54.2C520,370.3,519.5,370.5,519,370.5z M471.8,366.5h46.4l50.2-50.2H522
				L471.8,366.5z"/>
		</g>
		<g>
			<polygon class="st1" points="519,446.6 597.1,446.6 651.3,392.4 573.2,392.4 			"/>
			<path class="st2" d="M597.1,448.6H519c-0.8,0-1.5-0.5-1.8-1.2c-0.3-0.7-0.1-1.6,0.4-2.2l54.2-54.2c0.4-0.4,0.9-0.6,1.4-0.6h78.1
				c0.8,0,1.5,0.5,1.8,1.2c0.3,0.7,0.1,1.6-0.4,2.2L598.5,448C598.1,448.4,597.6,448.6,597.1,448.6z M523.8,444.6h72.4l50.2-50.2
				H574L523.8,444.6z"/>
		</g>
		<g>
			<polygon class="st1" points="519,251.4 573.2,197.2 571.8,71 519,108.3 			"/>
			<path class="st2" d="M519,253.4c-0.3,0-0.5,0-0.8-0.2c-0.7-0.3-1.2-1-1.2-1.8V108.3c0-0.6,0.3-1.3,0.8-1.6l52.7-37.3
				c0.6-0.4,1.4-0.5,2.1-0.1c0.7,0.3,1.1,1,1.1,1.8l1.5,126.2c0,0.5-0.2,1.1-0.6,1.4l-54.2,54.2C520,253.2,519.5,253.4,519,253.4z
				 M521,109.3v137.3l50.2-50.2l-1.4-121.5L521,109.3z"/>
		</g>
		<g>
			<polygon class="st1" points="597.1,251.4 519,251.4 573.2,197.2 651.3,197.2 			"/>
			<path class="st2" d="M597.1,253.4H519c-0.8,0-1.5-0.5-1.8-1.2c-0.3-0.7-0.1-1.6,0.4-2.2l54.2-54.2c0.4-0.4,0.9-0.6,1.4-0.6h78.1
				c0.8,0,1.5,0.5,1.8,1.2c0.3,0.7,0.1,1.6-0.4,2.2l-54.2,54.2C598.1,253.2,597.6,253.4,597.1,253.4z M523.8,249.4h72.4l50.2-50.2
				H574L523.8,249.4z"/>
		</g>
		<g>
			<polygon class="st1" points="649.2,472.6 703.4,418.4 703.4,28 649.2,82.2 			"/>
			<path class="st2" d="M649.2,474.6c-0.3,0-0.5,0-0.8-0.2c-0.7-0.3-1.2-1-1.2-1.8V82.2c0-0.5,0.2-1,0.6-1.4L702,26.6
				c0.6-0.6,1.4-0.7,2.2-0.4c0.7,0.3,1.2,1,1.2,1.8v390.4c0,0.5-0.2,1-0.6,1.4L650.6,474C650.2,474.4,649.7,474.6,649.2,474.6z
				 M651.2,83.1v384.7l50.2-50.2V32.8L651.2,83.1z"/>
		</g>
		<g>
			<path class="st0" d="M649.2,82.2v390.4h-52.1v26H519v-26h-52V368.5h52v78.1h78.1V303.5H493v-39h-26V82.2h52v-26h78.1v26H649.2z
				 M597.1,108.3H519v143.1h78.1V108.3z"/>
			<path class="st2" d="M597.1,500.6H519c-1.1,0-2-0.9-2-2v-24h-50c-1.1,0-2-0.9-2-2V368.5c0-1.1,0.9-2,2-2h52c1.1,0,2,0.9,2,2v76.1
				h74.1V305.5H493c-1.1,0-2-0.9-2-2v-37h-24c-1.1,0-2-0.9-2-2V82.2c0-1.1,0.9-2,2-2h50v-24c0-1.1,0.9-2,2-2h78.1c1.1,0,2,0.9,2,2
				v24h50.1c1.1,0,2,0.9,2,2v390.4c0,1.1-0.9,2-2,2h-50.1v24C599.1,499.7,598.2,500.6,597.1,500.6z M521,496.6h74.1v-24
				c0-1.1,0.9-2,2-2h50.1V84.2h-50.1c-1.1,0-2-0.9-2-2v-24H521v24c0,1.1-0.9,2-2,2h-50v178.2h24c1.1,0,2,0.9,2,2v37h102.1
				c1.1,0,2,0.9,2,2v143.1c0,1.1-0.9,2-2,2H519c-1.1,0-2-0.9-2-2v-76.1h-48v100.1h50c1.1,0,2,0.9,2,2V496.6z M597.1,253.4H519
				c-1.1,0-2-0.9-2-2V108.3c0-1.1,0.9-2,2-2h78.1c1.1,0,2,0.9,2,2v143.1C599.1,252.5,598.2,253.4,597.1,253.4z M521,249.4h74.1
				V110.3H521V249.4z"/>
		</g>
	</g>
</g>
</svg>
