<?xml version="1.0" encoding="utf-8"?>
<!-- Generator: Adobe Illustrator 25.0.1, SVG Export Plug-In . SVG Version: 6.00 Build 0)  -->
<svg version="1.1" id="Layer_1" xmlns="http://www.w3.org/2000/svg" xmlns:xlink="http://www.w3.org/1999/xlink" x="0px" y="0px"
	 viewBox="0 0 617.8 794.3" style="enable-background:new 0 0 617.8 794.3;" xml:space="preserve">
<style type="text/css">
	.st0{fill:#7CE5E9;}
	.st1{fill:#67BEC2;}
	.st2{fill:#6A43B8;}
	.st3{fill:#FFFFFF;}
	.st4{fill:#BF8FB5;}
</style>
<g>
	<g>
		<g>
			<g>
				<polygon class="st0" points="29.4,88.3 559,88.3 588.4,117.7 588.4,735.5 559,764.9 117.7,764.9 29.4,676.7 				"/>
				<polygon class="st1" points="73.6,720.8 132.4,779.6 544.3,779.6 603.1,720.8 603.1,132.4 544.3,73.6 544.3,662 485.4,720.8 
									"/>
				<rect x="588.4" y="117.7" class="st2" width="29.4" height="617.8"/>
				<rect x="117.7" y="764.9" class="st2" width="441.3" height="29.4"/>
				<rect x="559" y="735.5" class="st2" width="29.4" height="29.4"/>
				<g>
					<rect y="88.3" class="st3" width="559" height="29.4"/>
					<rect x="29.4" y="58.8" class="st3" width="29.4" height="617.8"/>
					<rect y="58.8" class="st1" width="559" height="29.4"/>
					<rect x="529.6" y="58.8" class="st4" width="29.4" height="617.8"/>
					<rect y="58.8" class="st1" width="29.4" height="617.8"/>
					<rect x="58.8" y="706.1" class="st4" width="441.3" height="29.4"/>
					<rect x="58.8" y="235.4" class="st4" width="470.7" height="29.4"/>
					<rect x="58.8" y="323.6" class="st4" width="470.7" height="29.4"/>
					<rect x="58.8" y="500.1" class="st4" width="470.7" height="29.4"/>
					<rect x="58.8" y="588.4" class="st4" width="470.7" height="29.4"/>
					<rect x="58.8" y="411.9" class="st4" width="470.7" height="29.4"/>
				</g>
				<rect x="88.3" y="735.5" class="st2" width="29.4" height="29.4"/>
				<rect x="500.1" y="676.7" class="st4" width="29.4" height="29.4"/>
				<rect x="559" y="88.3" class="st2" width="29.4" height="29.4"/>
			</g>
			<rect x="29.4" y="676.7" class="st1" width="29.4" height="29.4"/>
		</g>
		<g>
			<rect x="117.7" y="117.7" class="st2" width="29.4" height="29.4"/>
			<rect x="88.3" y="29.4" class="st2" width="29.4" height="88.3"/>
			<rect x="117.7" class="st2" width="58.8" height="29.4"/>
			<rect x="176.5" y="29.4" class="st2" width="29.4" height="29.4"/>
		</g>
		<g>
			<rect x="264.8" y="117.7" class="st2" width="29.4" height="29.4"/>
			<rect x="235.4" y="29.4" class="st2" width="29.4" height="88.3"/>
			<rect x="264.8" class="st2" width="58.8" height="29.4"/>
			<rect x="323.6" y="29.4" class="st2" width="29.4" height="29.4"/>
		</g>
		<g>
			<rect x="411.9" y="117.7" class="st2" width="29.4" height="29.4"/>
			<rect x="382.5" y="29.4" class="st2" width="29.4" height="88.3"/>
			<rect x="411.9" class="st2" width="58.8" height="29.4"/>
			<rect x="470.7" y="29.4" class="st2" width="29.4" height="29.4"/>
		</g>
	</g>
</g>
</svg>
