<?xml version="1.0" encoding="utf-8"?>
<!-- Generator: Adobe Illustrator 25.2.1, SVG Export Plug-In . SVG Version: 6.00 Build 0)  -->
<svg version="1.1" id="Layer_1" xmlns="http://www.w3.org/2000/svg" xmlns:xlink="http://www.w3.org/1999/xlink" x="0px" y="0px"
	 viewBox="0 0 1379.4 1064" style="enable-background:new 0 0 1379.4 1064;" xml:space="preserve">
<style type="text/css">
	.st0{fill:#F7DEE0;}
	.st1{fill:#FCB0AB;}
	.st2{fill:#FFFFFF;}
</style>
<g>
	<g>
		<path class="st0" d="M38.5,158.7L174,23.2c7.3-7.3,17.3-11.5,27.7-11.5h343.8c10.4,0,20.3,4.1,27.7,11.5l135.5,135.5H38.5z"/>
		<path class="st1" d="M708.6,170.5H38.5c-4.8,0-9-2.9-10.9-7.3c-1.8-4.4-0.8-9.5,2.6-12.8L165.7,14.9C175.3,5.3,188,0,201.6,0
			h343.8c13.6,0,26.4,5.3,36,14.9l135.5,135.5c3.4,3.4,4.4,8.4,2.6,12.8C717.7,167.6,713.4,170.5,708.6,170.5z M66.9,147h613.4
			L564.8,31.5c-5.2-5.2-12-8-19.3-8H201.6c-7.3,0-14.2,2.8-19.3,8L66.9,147z"/>
	</g>
	<g>
		<g>
			<path class="st0" d="M994.9,158.7H49.2c-20.6,0-37.4,16.7-37.4,37.4v818.7c0,20.6,16.7,37.4,37.4,37.4h1074.7
				c20.6,0,37.4-16.7,37.4-37.4V325.1c0-9.9-3.9-19.4-11-26.4l-129-129C1014.3,162.7,1004.8,158.7,994.9,158.7z"/>
			<path class="st1" d="M1123.9,1064H49.2C22,1064,0,1042,0,1014.8V196.1C0,169,22,147,49.2,147h945.7c13.1,0,25.5,5.1,34.8,14.4
				l129,129c9.3,9.3,14.4,21.6,14.4,34.8v689.8C1173,1042,1151,1064,1123.9,1064z M49.2,170.5c-14.1,0-25.6,11.5-25.6,25.6v818.7
				c0,14.1,11.5,25.6,25.6,25.6h1074.7c14.1,0,25.6-11.5,25.6-25.6V325.1c0-6.8-2.7-13.3-7.5-18.1l-129-129
				c-4.8-4.8-11.3-7.5-18.1-7.5H49.2z"/>
		</g>
	</g>
	<g>
		<g>
			<path class="st2" d="M963.6,224.8H115.3c-20.7,0-37.4,16.7-37.4,37.4v657.5h924.8V264C1002.7,242.4,985.2,224.8,963.6,224.8z"/>
			<path class="st1" d="M1002.7,931.5H77.9c-6.5,0-11.8-5.3-11.8-11.8V262.2c0-27.1,22.1-49.2,49.2-49.2h848.3
				c28,0,50.9,22.8,50.9,50.9v655.8C1014.5,926.3,1009.2,931.5,1002.7,931.5z M89.7,908H991V264c0-15.1-12.3-27.3-27.3-27.3H115.3
				c-14.1,0-25.6,11.5-25.6,25.6V908z"/>
		</g>
	</g>
	<g>
		<g>
			<path class="st0" d="M1249.1,314.1H303.3c-20.6,0-42.4,14.5-48.5,32.3l-232,673.6c-6.1,17.8,5.6,32.3,26.3,32.3h1074.7
				c20.6,0,42.4-14.5,48.5-32.3L1366,457.8c2.9-8.6,1.8-16.8-3.1-22.8l-90.7-111.4C1267.3,317.5,1259,314.1,1249.1,314.1z"/>
			<path class="st1" d="M1123.9,1064H49.2c-14.3,0-26.6-5.6-33.6-15.5c-6.5-9.1-7.9-20.7-3.8-32.4l232-673.6
				c7.8-22.6,33.9-40.2,59.6-40.2h945.7c13.6,0,25.1,4.9,32.3,13.8l90.7,111.4c7.5,9.2,9.4,21.7,5.1,34.1l-193.7,562.2
				C1175.7,1046.3,1149.5,1064,1123.9,1064z M303.3,325.9c-15.7,0-32.8,11.2-37.4,24.4L34,1023.8c-1.1,3.1-1.8,7.5,0.7,11.1
				c2.5,3.6,7.8,5.6,14.4,5.6h1074.7c15.7,0,32.8-11.2,37.4-24.4L1354.9,454c1.1-3.3,1.8-8-1.1-11.6L1263.2,331
				c-2.7-3.3-7.8-5.1-14.1-5.1H303.3z"/>
		</g>
	</g>
</g>
</svg>
