<?xml version="1.0" encoding="utf-8"?>
<!-- Generator: Adobe Illustrator 25.2.1, SVG Export Plug-In . SVG Version: 6.00 Build 0)  -->
<svg version="1.1" id="Layer_1" xmlns="http://www.w3.org/2000/svg" xmlns:xlink="http://www.w3.org/1999/xlink" x="0px" y="0px"
	 viewBox="0 0 1234.5 1064" style="enable-background:new 0 0 1234.5 1064;" xml:space="preserve">
<style type="text/css">
	.st0{fill:#FBDEE2;}
	.st1{fill:#FCB0AB;}
</style>
<g>
	<g>
		<path class="st0" d="M38.5,158.7L174,23.2c7.3-7.3,17.3-11.5,27.7-11.5h343.8c10.4,0,20.3,4.1,27.7,11.5l135.5,135.5H38.5z"/>
		<path class="st1" d="M708.6,170.5H38.5c-4.8,0-9-2.9-10.9-7.3c-1.8-4.4-0.8-9.5,2.6-12.8L165.7,14.9C175.3,5.3,188,0,201.6,0
			h343.8c13.6,0,26.4,5.3,36,14.9l135.5,135.5c3.4,3.4,4.4,8.4,2.6,12.8C717.7,167.6,713.4,170.5,708.6,170.5z M66.9,147h613.4
			L564.8,31.5c-5.2-5.2-12-8-19.3-8H201.6c-7.3,0-14.2,2.8-19.3,8L66.9,147z"/>
	</g>
	<g>
		<g>
			<path class="st0" d="M1056.4,158.7H49.2c-20.6,0-37.4,16.7-37.4,37.4v818.8c0,20.6,16.7,37.4,37.4,37.4h1136.2
				c20.6,0,37.4-16.7,37.4-37.4V325.1c0-9.9-3.9-19.4-11-26.4l-129-129C1075.8,162.7,1066.3,158.7,1056.4,158.7z"/>
			<path class="st1" d="M1185.3,1064H49.2C22,1064,0,1042,0,1014.9V196.1C0,169,22,147,49.2,147h1007.2c13.1,0,25.5,5.1,34.8,14.4
				l129,129c9.3,9.3,14.4,21.6,14.4,34.8v689.8C1234.5,1042,1212.4,1064,1185.3,1064z M49.2,170.5c-14.1,0-25.6,11.5-25.6,25.6
				v818.8c0,14.1,11.5,25.6,25.6,25.6h1136.2c14.1,0,25.6-11.5,25.6-25.6V325.1c0-6.8-2.7-13.3-7.5-18.1l-129-129
				c-4.8-4.8-11.3-7.5-18.1-7.5H49.2z"/>
		</g>
	</g>
</g>
</svg>
