<?xml version="1.0" encoding="utf-8"?>
<!-- Generator: Adobe Illustrator 25.2.1, SVG Export Plug-In . SVG Version: 6.00 Build 0)  -->
<svg version="1.1" id="Layer_1" xmlns="http://www.w3.org/2000/svg" xmlns:xlink="http://www.w3.org/1999/xlink" x="0px" y="0px"
	 viewBox="0 0 655.7 765" style="enable-background:new 0 0 655.7 765;" xml:space="preserve">
<style type="text/css">
	.st0{fill:#FFA1F3;}
	.st1{fill:#6A43B8;}
	.st2{fill:#D566C7;}
	.st3{fill:#FFFFFF;}
</style>
<g>
	<g>
		<g>
			<polygon class="st0" points="49.7,9.9 9.9,49.7 9.9,596.1 49.7,635.8 238.4,635.8 238.4,675.6 317.9,755.1 397.4,675.6 
				397.4,635.8 596.1,635.8 625.9,596.1 625.9,49.7 596.1,9.9 			"/>
			<g>
				<g>
					
						<rect x="635.8" y="59.6" transform="matrix(-1 -1.224647e-16 1.224647e-16 -1 1291.5587 665.6492)" class="st1" width="19.9" height="546.4"/>
					
						<rect x="616" y="39.7" transform="matrix(-1 -1.224647e-16 1.224647e-16 -1 1251.8184 99.3504)" class="st1" width="19.9" height="19.9"/>
					
						<rect x="59.6" y="19.9" transform="matrix(-1 -1.224647e-16 1.224647e-16 -1 675.5845 59.6101)" class="st1" width="556.4" height="19.9"/>
					
						<rect x="616" y="606" transform="matrix(-1 -1.224647e-16 1.224647e-16 -1 1251.8184 1231.9476)" class="st1" width="19.9" height="19.9"/>
					
						<rect x="407.3" y="645.8" transform="matrix(-1 -1.224647e-16 1.224647e-16 -1 1003.442 1311.4283)" class="st1" width="188.8" height="19.9"/>
					<rect x="19.9" y="59.6" class="st1" width="19.9" height="566.3"/>
					<rect x="39.7" y="39.7" class="st1" width="19.9" height="19.9"/>
					
						<rect x="39.7" y="625.9" transform="matrix(-1 -1.224647e-16 1.224647e-16 -1 635.8445 1271.688)" class="st2" width="556.4" height="19.9"/>
					
						<rect x="596.1" y="625.9" transform="matrix(-1 -1.224647e-16 1.224647e-16 -1 1212.0782 1271.688)" class="st1" width="19.9" height="19.9"/>
				</g>
				<rect x="407.3" y="665.6" class="st1" width="19.9" height="19.9"/>
				<rect x="367.6" y="705.4" class="st1" width="19.9" height="19.9"/>
				<rect x="387.5" y="685.5" class="st1" width="19.9" height="19.9"/>
				
					<rect x="347.7" y="725.3" transform="matrix(-1 -1.224647e-16 1.224647e-16 -1 715.325 1470.3893)" class="st1" width="19.9" height="19.9"/>
				
					<rect x="327.9" y="745.1" transform="matrix(-1 -1.224647e-16 1.224647e-16 -1 675.5845 1510.1296)" class="st1" width="19.9" height="19.9"/>
				<g>
					<rect x="19.9" y="39.7" class="st3" width="19.9" height="566.3"/>
					
						<rect x="616" y="39.7" transform="matrix(-1 -1.224647e-16 1.224647e-16 -1 1251.8184 645.7789)" class="st2" width="19.9" height="566.3"/>
					<rect x="39.7" y="39.7" class="st3" width="19.9" height="19.9"/>
					
						<rect x="596.1" y="19.9" transform="matrix(-1 -1.224647e-16 1.224647e-16 -1 1212.0782 59.6101)" class="st2" width="19.9" height="19.9"/>
					<rect x="39.7" y="19.9" class="st3" width="556.4" height="19.9"/>
					
						<rect x="39.7" transform="matrix(-1 -1.224647e-16 1.224647e-16 -1 635.8445 19.87)" class="st2" width="556.4" height="19.9"/>
					
						<rect x="596.1" y="606" transform="matrix(-1 -1.224647e-16 1.224647e-16 -1 1212.0782 1231.9476)" class="st2" width="19.9" height="19.9"/>
					<rect y="39.7" class="st2" width="19.9" height="566.3"/>
					<rect x="19.9" y="19.9" class="st2" width="19.9" height="19.9"/>
					<rect x="19.9" y="606" class="st2" width="19.9" height="19.9"/>
				</g>
				<rect x="387.5" y="645.8" class="st2" width="19.9" height="19.9"/>
				<rect x="387.5" y="665.6" class="st2" width="19.9" height="19.9"/>
				<rect x="347.7" y="705.4" class="st2" width="19.9" height="19.9"/>
				<rect x="367.6" y="685.5" class="st2" width="19.9" height="19.9"/>
				<rect x="248.4" y="596.1" class="st0" width="139.1" height="59.6"/>
				
					<rect x="228.5" y="645.8" transform="matrix(-1 -1.224647e-16 1.224647e-16 -1 476.8833 1311.4283)" class="st2" width="19.9" height="19.9"/>
				
					<rect x="228.5" y="665.6" transform="matrix(-1 -1.224647e-16 1.224647e-16 -1 476.8833 1351.1685)" class="st2" width="19.9" height="19.9"/>
				
					<rect x="268.2" y="705.4" transform="matrix(-1 -1.224647e-16 1.224647e-16 -1 556.3637 1430.6492)" class="st2" width="19.9" height="19.9"/>
				
					<rect x="248.4" y="685.5" transform="matrix(-1 -1.224647e-16 1.224647e-16 -1 516.6234 1390.9088)" class="st2" width="19.9" height="19.9"/>
				
					<rect x="288.1" y="725.3" transform="matrix(-1 -1.224647e-16 1.224647e-16 -1 596.1041 1470.3893)" class="st2" width="19.9" height="19.9"/>
				
					<rect x="327.9" y="725.3" transform="matrix(-1 -1.224647e-16 1.224647e-16 -1 675.5845 1470.3893)" class="st2" width="19.9" height="19.9"/>
				
					<rect x="308" y="745.1" transform="matrix(-1 -1.224647e-16 1.224647e-16 -1 635.8442 1510.1296)" class="st2" width="19.9" height="19.9"/>
			</g>
		</g>
	</g>
	<g>
		<polygon class="st3" points="327.9,248.4 288.1,208.6 208.6,208.6 168.9,248.4 168.9,327.9 327.9,486.8 486.8,327.9 486.8,248.4 
			447.1,208.6 367.6,208.6 		"/>
		
			<rect x="298.1" y="457" transform="matrix(-1 -1.224647e-16 1.224647e-16 -1 615.9741 933.8959)" class="st1" width="19.9" height="19.9"/>
		
			<rect x="317.9" y="476.9" transform="matrix(-1 -1.224647e-16 1.224647e-16 -1 655.7145 973.636)" class="st1" width="19.9" height="19.9"/>
		
			<rect x="238.4" y="397.4" transform="matrix(-1 -1.224647e-16 1.224647e-16 -1 496.7533 814.675)" class="st1" width="19.9" height="19.9"/>
		
			<rect x="278.2" y="437.1" transform="matrix(-1 -1.224647e-16 1.224647e-16 -1 576.2341 894.1555)" class="st1" width="19.9" height="19.9"/>
		
			<rect x="198.7" y="357.7" transform="matrix(-1 -1.224647e-16 1.224647e-16 -1 417.2729 735.1946)" class="st1" width="19.9" height="19.9"/>
		
			<rect x="218.6" y="377.5" transform="matrix(-1 -1.224647e-16 1.224647e-16 -1 457.0132 774.935)" class="st1" width="19.9" height="19.9"/>
		
			<rect x="159" y="238.4" transform="matrix(-1 -1.224647e-16 1.224647e-16 -1 337.7924 576.2335)" class="st1" width="19.9" height="99.4"/>
		
			<rect x="178.8" y="337.8" transform="matrix(-1 -1.224647e-16 1.224647e-16 -1 377.5325 695.4543)" class="st1" width="19.9" height="19.9"/>
		
			<rect x="178.8" y="218.6" transform="matrix(6.123234e-17 -1 1 6.123234e-17 -39.7401 417.2726)" class="st1" width="19.9" height="19.9"/>
		
			<rect x="238.4" y="159" transform="matrix(6.123234e-17 -1 1 6.123234e-17 39.7404 457.0129)" class="st1" width="19.9" height="99.4"/>
		
			<rect x="298.1" y="218.6" transform="matrix(-1 -1.224647e-16 1.224647e-16 -1 615.9741 457.0126)" class="st1" width="19.9" height="19.9"/>
		
			<rect x="317.9" y="238.4" transform="matrix(-1 -1.224647e-16 1.224647e-16 -1 655.7145 496.753)" class="st1" width="19.9" height="19.9"/>
		<rect x="337.8" y="457" class="st1" width="19.9" height="19.9"/>
		<rect x="397.4" y="397.4" class="st1" width="19.9" height="19.9"/>
		<rect x="357.7" y="437.1" class="st1" width="19.9" height="19.9"/>
		<rect x="437.1" y="357.7" class="st1" width="19.9" height="19.9"/>
		<rect x="417.3" y="377.5" class="st1" width="19.9" height="19.9"/>
		<rect x="476.9" y="238.4" class="st1" width="19.9" height="99.4"/>
		<rect x="457" y="337.8" class="st1" width="19.9" height="19.9"/>
		
			<rect x="457" y="218.6" transform="matrix(6.123234e-17 -1 1 6.123234e-17 238.4418 695.4544)" class="st1" width="19.9" height="19.9"/>
		
			<rect x="397.4" y="159" transform="matrix(6.123234e-17 -1 1 6.123234e-17 198.7014 615.974)" class="st1" width="19.9" height="99.4"/>
		<rect x="337.8" y="218.6" class="st1" width="19.9" height="19.9"/>
		
			<rect x="198.7" y="258.3" transform="matrix(-1 -1.224647e-16 1.224647e-16 -1 417.2729 556.3634)" class="st3" width="19.9" height="39.7"/>
		<rect x="218.6" y="238.4" class="st3" width="19.9" height="19.9"/>
		
			<rect x="258.3" y="417.3" transform="matrix(-1 -1.224647e-16 1.224647e-16 -1 536.4937 854.4152)" class="st1" width="19.9" height="19.9"/>
		<rect x="377.5" y="417.3" class="st1" width="19.9" height="19.9"/>
	</g>
</g>
</svg>
