<?xml version="1.0" encoding="utf-8"?>
<!-- Generator: Adobe Illustrator 25.2.1, SVG Export Plug-In . SVG Version: 6.00 Build 0)  -->
<svg version="1.1" id="Layer_1" xmlns="http://www.w3.org/2000/svg" xmlns:xlink="http://www.w3.org/1999/xlink" x="0px" y="0px"
	 viewBox="0 0 1107 668" style="enable-background:new 0 0 1107 668;" xml:space="preserve">
<style type="text/css">
	.st0{fill:#FFFFFF;stroke:#000000;stroke-width:1.2;stroke-linecap:round;stroke-linejoin:round;stroke-miterlimit:10;}
	.st1{fill:#FBFB5E;stroke:#000000;stroke-width:1.2;stroke-linecap:round;stroke-linejoin:round;stroke-miterlimit:10;}
	.st2{fill:none;stroke:#000000;stroke-width:1.2;stroke-linecap:round;stroke-linejoin:round;stroke-miterlimit:10;}
</style>
<path class="st0" d="M1030.6,149.3c-21.9,0-41.6,9.6-55.2,24.7c1.2-5.1,1.8-10.4,1.8-15.9c0-39.6-32.1-71.6-71.6-71.6
	c-17.9,0-34.2,6.6-46.8,17.5c-12.6-58-64.2-101.5-126-101.5c-70,0-126.9,55.7-128.9,125.2c-10.9-6.7-23.6-10.6-37.3-10.6
	c-36.2,0-66.1,26.9-70.9,61.9c-31.4,1.6-56.4,27.5-56.4,59.4c0,32.9,26.6,59.5,59.5,59.5h531.7c41,0,74.3-33.2,74.3-74.3
	S1071.6,149.3,1030.6,149.3z"/>
<g>
	
		<ellipse transform="matrix(0.7071 -0.7071 0.7071 0.7071 -200.0215 405.9356)" class="st1" cx="390" cy="444.4" rx="221.6" ry="221.6"/>
	<path class="st2" d="M594.3,358.4c107.4-4.4,180.2,5,183.6,27.5c5.4,35.6-163.9,90.7-378.1,123C185.5,541.2,7.5,538.5,2.1,502.9
		c-3.4-22.6,63.4-53,167.4-80.5"/>
</g>
</svg>
