<?xml version="1.0" encoding="utf-8"?>
<!-- Generator: Adobe Illustrator 25.2.1, SVG Export Plug-In . SVG Version: 6.00 Build 0)  -->
<svg version="1.1" id="Layer_1" xmlns="http://www.w3.org/2000/svg" xmlns:xlink="http://www.w3.org/1999/xlink" x="0px" y="0px"
	 viewBox="0 0 713.9 332.2" style="enable-background:new 0 0 713.9 332.2;" xml:space="preserve">
<style type="text/css">
	.st0{fill:none;stroke:#21136A;stroke-width:1.5;stroke-linecap:round;stroke-linejoin:round;stroke-miterlimit:10;}
</style>
<path class="st0" d="M712.2,18.1c-21.8-21.8-57.1-21.8-78.9,0l0,0c-21.8,21.8-57.1,21.8-78.9,0l0,0c-21.8-21.8-57.1-21.8-78.9,0l0,0
	c-21.8,21.8-57.1,21.8-78.9,0l0,0c-21.8-21.8-57.1-21.8-78.9,0h0c-21.8,21.8-57.1,21.8-78.9,0h0c-21.8-21.8-57.1-21.8-78.9,0l0,0
	c-21.8,21.8-57.1,21.8-78.9,0l0,0C58.9-3.7,23.5-3.7,1.8,18.1"/>
<path class="st0" d="M712.2,165.9c-21.8-21.8-57.1-21.8-78.9,0l0,0c-21.8,21.8-57.1,21.8-78.9,0l0,0c-21.8-21.8-57.1-21.8-78.9,0
	l0,0c-21.8,21.8-57.1,21.8-78.9,0l0,0c-21.8-21.8-57.1-21.8-78.9,0l0,0c-21.8,21.8-57.1,21.8-78.9,0h0c-21.8-21.8-57.1-21.8-78.9,0
	l0,0c-21.8,21.8-57.1,21.8-78.9,0l0,0c-21.8-21.8-57.1-21.8-78.9,0"/>
<path class="st0" d="M712.2,313.7c-21.8-21.8-57.1-21.8-78.9,0l0,0c-21.8,21.8-57.1,21.8-78.9,0l0,0c-21.8-21.8-57.1-21.8-78.9,0
	l0,0c-21.8,21.8-57.1,21.8-78.9,0l0,0c-21.8-21.8-57.1-21.8-78.9,0l0,0c-21.8,21.8-57.1,21.8-78.9,0h0c-21.8-21.8-57.1-21.8-78.9,0
	l0,0c-21.8,21.8-57.1,21.8-78.9,0l0,0c-21.8-21.8-57.1-21.8-78.9,0"/>
</svg>
