<?xml version="1.0" encoding="utf-8"?>
<!-- Generator: Adobe Illustrator 25.0.1, SVG Export Plug-In . SVG Version: 6.00 Build 0)  -->
<svg version="1.1" id="Layer_1" xmlns="http://www.w3.org/2000/svg" xmlns:xlink="http://www.w3.org/1999/xlink" x="0px" y="0px"
	 viewBox="0 0 433.3 400" style="enable-background:new 0 0 433.3 400;" xml:space="preserve">
<style type="text/css">
	.st0{fill:#FFD0FC;}
	.st1{fill:#FFFFFF;}
	.st2{fill:#21136A;}
</style>
<g>
	<polygon class="st0" points="150,16.7 83.3,16.7 16.6,83.4 16.6,150 50,183.4 50,216.7 200,366.7 200,66.7 	"/>
	<polygon class="st1" points="383.3,216.7 383.3,183.4 416.7,150 416.7,83.4 350,16.7 283.3,16.7 216.6,83.4 200,66.7 200,366.7 
		216.6,383.4 	"/>
	<g>
		<rect x="66.6" class="st2" width="33.3" height="33.3"/>
		<rect x="33.3" y="33.4" class="st2" width="33.3" height="33.3"/>
		<rect y="66.7" class="st2" width="33.3" height="33.3"/>
		<rect y="100" class="st2" width="33.3" height="33.3"/>
		<rect y="133.4" class="st2" width="33.3" height="33.3"/>
		<rect x="33.3" y="166.7" class="st2" width="33.3" height="33.3"/>
		<rect x="33.3" y="200.1" class="st2" width="33.3" height="33.3"/>
		<rect x="66.6" y="233.4" class="st2" width="33.3" height="33.3"/>
		<rect x="100" y="266.7" class="st2" width="33.3" height="33.3"/>
		<rect x="133.3" y="300.1" class="st2" width="33.3" height="33.3"/>
		<rect x="166.6" y="333.4" class="st2" width="33.3" height="33.3"/>
		<rect x="200" y="366.7" class="st2" width="33.3" height="33.3"/>
		<rect x="100" class="st2" width="33.3" height="33.3"/>
		<rect x="133.3" class="st2" width="33.3" height="33.3"/>
		<rect x="166.6" y="33.4" class="st2" width="33.3" height="33.3"/>
		<rect x="333.4" y="0.1" class="st2" width="33.3" height="33.3"/>
		<rect x="366.7" y="33.4" class="st2" width="33.3" height="33.3"/>
		<rect x="400" y="66.7" class="st2" width="33.3" height="33.3"/>
		<rect x="400" y="100.1" class="st2" width="33.3" height="33.3"/>
		<rect x="400" y="133.4" class="st2" width="33.3" height="33.3"/>
		<rect x="366.7" y="166.8" class="st2" width="33.3" height="33.3"/>
		<rect x="366.7" y="200" class="st2" width="33.3" height="33.3"/>
		<rect x="333.4" y="233.4" class="st2" width="33.3" height="33.3"/>
		<rect x="300" y="266.8" class="st2" width="33.3" height="33.3"/>
		<rect x="266.6" y="300.1" class="st2" width="33.3" height="33.3"/>
		<rect x="233.4" y="333.4" class="st2" width="33.3" height="33.3"/>
		<rect x="300" y="0.1" class="st2" width="33.3" height="33.3"/>
		<rect x="266.6" y="0.1" class="st2" width="33.3" height="33.3"/>
		<rect x="233.4" y="33.4" class="st2" width="33.3" height="33.3"/>
		<rect x="200" y="66.7" class="st2" width="33.3" height="33.3"/>
	</g>
</g>
</svg>
