<?xml version="1.0" encoding="utf-8"?>
<!-- Generator: Adobe Illustrator 25.0.1, SVG Export Plug-In . SVG Version: 6.00 Build 0)  -->
<svg version="1.1" id="Layer_1" xmlns="http://www.w3.org/2000/svg" xmlns:xlink="http://www.w3.org/1999/xlink" x="0px" y="0px"
	 viewBox="0 0 1124 714" style="enable-background:new 0 0 1124 714;" xml:space="preserve">
<style type="text/css">
	.st0{fill:#FFFFFF;stroke:#000000;stroke-miterlimit:10;}
	.st1{fill:url(#SVGID_1_);stroke:#000000;stroke-miterlimit:10;}
	.st2{fill:url(#SVGID_2_);stroke:#000000;stroke-miterlimit:10;}
	.st3{fill:url(#SVGID_3_);stroke:#000000;stroke-miterlimit:10;}
	.st4{fill:url(#SVGID_4_);stroke:#000000;stroke-miterlimit:10;}
	.st5{fill:url(#SVGID_5_);stroke:#000000;stroke-miterlimit:10;}
</style>
<g>
	<path class="st0" d="M235.3,123l5.9-22c46.9-4.6,87-11.2,120.3-19.9c-7.6,22.6-15.9,52.2-24.8,88.7L300,307l44.9,1
		c20.8,1,43.5-4.2,68-15.5c24.5-11.3,46.5-31.1,65.8-59.5c19.3-28.4,29-59,29-92c0-32.6-11.8-58.4-35.4-77.4S412.7,35,364.2,35
		c-55.3,0-109.5,13.7-162.5,41.2c-53,27.4-94,62.5-122.8,105.2s-43.2,84.8-43.2,126.4c0,20.5,3.7,38.2,11.2,53.3s20.8,30,39.9,44.6
		c15.9,11.7,23.9,23,23.9,34.1c0,7.2-2.6,13.2-7.8,18S91.5,465,84.4,465c-19.2,0-37.8-13.2-55.7-39.5S1.8,365.9,1.8,325.6
		c0-73.8,28.3-141,85-201.8C161,44,260.6,4,385.7,4c47.5,0,86.5,6.2,117,18.5c30.4,12.3,53.2,29.2,68.4,50.6
		c15.1,21.4,22.7,44.6,22.7,69.6c0,31.8-10.7,63.1-32,93.7c-21.3,30.7-52.7,55.4-94.1,74.3c-41.5,18.8-87.6,28.2-138.3,28.2
		c-7.8,0-20-0.3-36.6-1l-39.5,151.8c-6.3,25.7-13.5,51.1-21.4,76.2c25.4,6,47.5,9,66.4,9c23.8,0,49.3-4.3,76.7-13l-5.9,27
		c-25.4,6.7-46.9,10-64.4,10c-16.9,0-41.7-1.8-74.2-5.2c-26-3.2-47.2-4.8-63.5-4.8c-31.6,0-64,3.7-97.1,11l5.8-26
		c33.8-5.5,56.9-13.5,69.3-23.8c17.6-14.6,31.9-43.9,42.9-88l73.7-292.2c3.2-13.4,4.9-22.8,4.9-28.2c0-5.1-2.1-9.6-6.3-13.6
		c-4.2-4-9.3-6-15.1-6C242.8,122,239.5,122.3,235.3,123z"/>
</g>
<g>
	<g>
		<path class="st0" d="M693.7,373.7c-33.3,0-59.5-9.3-78.6-28c-19.1-18.7-28.6-44-28.6-76.1c0-33.1,9.9-59,29.7-77.6
			c19.8-18.7,46.5-28,80.3-28c33.2,0,59.2,9.3,78.1,28c18.9,18.7,28.3,43.4,28.3,74.1c0,33.2-9.7,59.4-29.2,78.7
			C754.3,364.1,727.6,373.7,693.7,373.7z M695.3,211.2c-14.6,0-25.9,5-34,15c-8.1,10-12.1,24.2-12.1,42.6
			c0,38.4,15.5,57.6,46.5,57.6c29.6,0,44.3-19.7,44.3-59.2C740,229.9,725.1,211.2,695.3,211.2z"/>
		<path class="st0" d="M957.8,220.9c-7.4-4-16.1-6.1-26-6.1c-13.4,0-23.9,4.9-31.4,14.7c-7.6,9.8-11.3,23.2-11.3,40.1v95.5h-61.7
			v-200h61.7v37.1h0.8c9.8-27.1,27.3-40.6,52.7-40.6c6.5,0,11.6,0.8,15.2,2.3V220.9z"/>
		<path class="st0" d="M1121.4,365.2c-9.1,4.8-22.9,7.2-41.2,7.2c-43.5,0-65.2-22.6-65.2-67.8v-91.6h-32.4v-45.5h32.4v-43.2
			l61.5-17.6v60.7h44.9v45.5h-44.9v80.9c0,20.8,8.3,31.2,24.8,31.2c6.5,0,13.2-1.9,20.1-5.7V365.2z"/>
	</g>
</g>
<g>
	<g>
		<linearGradient id="SVGID_1_" gradientUnits="userSpaceOnUse" x1="334.4727" y1="770.6264" x2="334.4727" y2="436.815">
			<stop  offset="0.2067" style="stop-color:#FFFFFF"/>
			<stop  offset="0.2891" style="stop-color:#FFEDED"/>
			<stop  offset="0.4551" style="stop-color:#FFBDBD"/>
			<stop  offset="0.69" style="stop-color:#FF7070"/>
			<stop  offset="0.9824" style="stop-color:#FF0707"/>
			<stop  offset="1" style="stop-color:#FF0000"/>
		</linearGradient>
		<path class="st1" d="M408.3,458c-7.9-3.1-15.6-4.7-22.9-4.7c-19.8,0-29.7,10.7-29.7,32.2v21.3h45.7v45.5h-45.7v154.5h-61.5V552.3
			h-33.6v-45.5h33.6V482c0-22.8,7.4-41.1,22.3-55.1c14.8-13.9,35-20.9,60.5-20.9c12.5,0,22.9,1.3,31.2,3.9V458z"/>
		<linearGradient id="SVGID_2_" gradientUnits="userSpaceOnUse" x1="517.041" y1="770.6264" x2="517.041" y2="436.815">
			<stop  offset="0.2067" style="stop-color:#FFFFFF"/>
			<stop  offset="0.2891" style="stop-color:#FFEDED"/>
			<stop  offset="0.4551" style="stop-color:#FFBDBD"/>
			<stop  offset="0.69" style="stop-color:#FF7070"/>
			<stop  offset="0.9824" style="stop-color:#FF0707"/>
			<stop  offset="1" style="stop-color:#FF0000"/>
		</linearGradient>
		<path class="st2" d="M516.1,711.7c-33.3,0-59.5-9.3-78.6-28c-19.1-18.7-28.6-44-28.6-76.1c0-33.1,9.9-59,29.7-77.6
			c19.8-18.7,46.5-28,80.3-28c33.2,0,59.2,9.3,78.1,28c18.9,18.7,28.3,43.4,28.3,74.1c0,33.2-9.7,59.4-29.2,78.7
			C576.6,702.1,549.9,711.7,516.1,711.7z M517.6,549.2c-14.6,0-25.9,5-34,15c-8.1,10-12.1,24.2-12.1,42.6
			c0,38.4,15.5,57.6,46.5,57.6c29.6,0,44.3-19.7,44.3-59.2C562.4,567.9,547.4,549.2,517.6,549.2z"/>
		<linearGradient id="SVGID_3_" gradientUnits="userSpaceOnUse" x1="672.543" y1="770.6264" x2="672.543" y2="436.815">
			<stop  offset="0.2067" style="stop-color:#FFFFFF"/>
			<stop  offset="0.2891" style="stop-color:#FFEDED"/>
			<stop  offset="0.4551" style="stop-color:#FFBDBD"/>
			<stop  offset="0.69" style="stop-color:#FF7070"/>
			<stop  offset="0.9824" style="stop-color:#FF0707"/>
			<stop  offset="1" style="stop-color:#FF0000"/>
		</linearGradient>
		<path class="st3" d="M703.4,706.8h-61.7V410.7h61.7V706.8z"/>
		<linearGradient id="SVGID_4_" gradientUnits="userSpaceOnUse" x1="767.8057" y1="770.6264" x2="767.8057" y2="436.815">
			<stop  offset="0.2067" style="stop-color:#FFFFFF"/>
			<stop  offset="0.2891" style="stop-color:#FFEDED"/>
			<stop  offset="0.4551" style="stop-color:#FFBDBD"/>
			<stop  offset="0.69" style="stop-color:#FF7070"/>
			<stop  offset="0.9824" style="stop-color:#FF0707"/>
			<stop  offset="1" style="stop-color:#FF0000"/>
		</linearGradient>
		<path class="st4" d="M767.8,475.2c-10.4,0-18.9-3.1-25.6-9.3c-6.6-6.2-10-13.8-10-22.8c0-9.2,3.3-16.8,10-22.7s15.2-8.8,25.6-8.8
			c10.5,0,19.1,2.9,25.7,8.8c6.6,5.9,9.9,13.4,9.9,22.7c0,9.4-3.3,17.1-9.9,23C786.9,472.2,778.4,475.2,767.8,475.2z M798.3,706.8
			h-61.7v-200h61.7V706.8z"/>
		<linearGradient id="SVGID_5_" gradientUnits="userSpaceOnUse" x1="921.7168" y1="770.6264" x2="921.7168" y2="436.815">
			<stop  offset="0.2067" style="stop-color:#FFFFFF"/>
			<stop  offset="0.2891" style="stop-color:#FFEDED"/>
			<stop  offset="0.4551" style="stop-color:#FFBDBD"/>
			<stop  offset="0.69" style="stop-color:#FF7070"/>
			<stop  offset="0.9824" style="stop-color:#FF0707"/>
			<stop  offset="1" style="stop-color:#FF0000"/>
		</linearGradient>
		<path class="st5" d="M920.7,711.7c-33.3,0-59.5-9.3-78.6-28c-19.1-18.7-28.6-44-28.6-76.1c0-33.1,9.9-59,29.7-77.6
			c19.8-18.7,46.5-28,80.3-28c33.2,0,59.2,9.3,78.1,28c18.9,18.7,28.3,43.4,28.3,74.1c0,33.2-9.7,59.4-29.2,78.7
			C981.3,702.1,954.6,711.7,920.7,711.7z M922.3,549.2c-14.6,0-25.9,5-34,15c-8.1,10-12.1,24.2-12.1,42.6
			c0,38.4,15.5,57.6,46.5,57.6c29.6,0,44.3-19.7,44.3-59.2C967,567.9,952.1,549.2,922.3,549.2z"/>
	</g>
</g>
</svg>
