<?xml version="1.0" encoding="utf-8"?>
<!-- Generator: Adobe Illustrator 25.0.1, SVG Export Plug-In . SVG Version: 6.00 Build 0)  -->
<svg version="1.1" id="Layer_1" xmlns="http://www.w3.org/2000/svg" xmlns:xlink="http://www.w3.org/1999/xlink" x="0px" y="0px"
	 viewBox="0 0 1451.5 239.9" style="enable-background:new 0 0 1451.5 239.9;" xml:space="preserve">
<style type="text/css">
	.st0{fill:url(#SVGID_1_);stroke:#21136A;stroke-width:1.5;stroke-linecap:round;stroke-linejoin:round;stroke-miterlimit:10;}
	.st1{fill:url(#SVGID_2_);stroke:#21136A;stroke-width:1.5;stroke-linecap:round;stroke-linejoin:round;stroke-miterlimit:10;}
	.st2{fill:url(#SVGID_3_);stroke:#21136A;stroke-width:1.5;stroke-linecap:round;stroke-linejoin:round;stroke-miterlimit:10;}
	.st3{fill:url(#SVGID_4_);stroke:#21136A;stroke-width:1.5;stroke-linecap:round;stroke-linejoin:round;stroke-miterlimit:10;}
	.st4{fill:url(#SVGID_5_);stroke:#21136A;stroke-width:1.5;stroke-linecap:round;stroke-linejoin:round;stroke-miterlimit:10;}
	.st5{fill:url(#SVGID_6_);stroke:#21136A;stroke-width:1.5;stroke-linecap:round;stroke-linejoin:round;stroke-miterlimit:10;}
	.st6{fill:url(#SVGID_7_);stroke:#21136A;stroke-width:1.5;stroke-linecap:round;stroke-linejoin:round;stroke-miterlimit:10;}
	.st7{fill:url(#SVGID_8_);stroke:#21136A;stroke-width:1.5;stroke-linecap:round;stroke-linejoin:round;stroke-miterlimit:10;}
</style>
<g>
	
		<linearGradient id="SVGID_1_" gradientUnits="userSpaceOnUse" x1="-25.2347" y1="482.8048" x2="1544.0869" y2="227.5085" gradientTransform="matrix(1 0 0 -1 0 585.4308)">
		<stop  offset="0" style="stop-color:#FFD0FC"/>
		<stop  offset="0.5344" style="stop-color:#C0C5F5"/>
		<stop  offset="1" style="stop-color:#76FAF2"/>
	</linearGradient>
	<path class="st0" d="M0.8,224.2V4.5h83.4c26.1,0,44.6,7.6,55.5,23.1c10.9,15.2,16.5,30.4,16.5,45.6c0,17-5.6,32.7-16.7,47.2
		c-11.2,14.5-29.7,21.6-55.3,21.6h-32v64.4c0,10.4-9.4,17.8-20.3,17.8L0.8,224.2L0.8,224.2z M82,44.1H52.2v58.1h29.9
		c12.4,0,22.3-10.4,22.3-28.9S94.2,44.1,82,44.1z"/>
	
		<linearGradient id="SVGID_2_" gradientUnits="userSpaceOnUse" x1="-20.0419" y1="514.7217" x2="1549.2789" y2="259.4255" gradientTransform="matrix(1 0 0 -1 0 585.4308)">
		<stop  offset="0" style="stop-color:#FFD0FC"/>
		<stop  offset="0.5344" style="stop-color:#C0C5F5"/>
		<stop  offset="1" style="stop-color:#76FAF2"/>
	</linearGradient>
	<path class="st1" d="M326.5,152.9c-1.3,22.1-8.6,40.1-21.8,54c-12.9,14.2-31.4,21.3-55.5,21.3c-21.6,0-39.6-6.8-54.3-20.3
		c-14.5-13.4-22.3-31.7-23.6-55.3c-0.8-11.9-1-24.8-1-38.5c0-13.9,0.2-26.4,1-37.8c1.3-22,9.2-40.3,23.6-54.3
		c14.5-14.2,32.7-21.3,54.3-21.3c22.6,0,40.8,7.4,54.5,21.8c13.9,14.5,21.5,32.5,22.8,54C328.2,100.8,328.2,127.9,326.5,152.9z
		 M277.1,111.9c0.2-13.4,0-23.8-0.3-31.4c-0.5-10.4-3-19.8-7.9-27.9c-4.8-8.1-11.4-12.2-19.8-12.2c-15.5,0-26.6,15.7-27.9,40.1
		c-0.5,8.6-0.8,20.3-0.8,35.2l0.8,32.7c1.3,24.3,11.9,40.3,27.9,40.3c17,0,25.1-13.7,26.9-41.3C276.8,136.9,277.1,125.1,277.1,111.9
		z"/>
	
		<linearGradient id="SVGID_3_" gradientUnits="userSpaceOnUse" x1="-13.9004" y1="552.4819" x2="1555.4177" y2="297.1862" gradientTransform="matrix(1 0 0 -1 0 585.4308)">
		<stop  offset="0" style="stop-color:#FFD0FC"/>
		<stop  offset="0.5344" style="stop-color:#C0C5F5"/>
		<stop  offset="1" style="stop-color:#76FAF2"/>
	</linearGradient>
	<path class="st2" d="M414.5,115.4L442.1,4.5h41.6l28.1,111.8c0.8,1.8,1,9.9,1.3,11.9c0.8-2.3,1-10.4,1.3-12.4L538.4,4.5h53.2
		l-49.7,204.6c-2.3,10.9-11.4,16-22.6,16h-26.1l-28.7-110c-0.2-2.8-1-10.4-1.8-12.7c-0.8,2.8-1.3,10.6-2,13.4l-24.3,93.6
		c-2.8,10.4-11.7,15.7-22.6,15.7h-26.4L334.1,4.5h53.5l23.3,109.8c0.8,2.8,1.3,11.2,1.5,14.2C413.1,125.9,413.6,117.6,414.5,115.4z"
		/>
	
		<linearGradient id="SVGID_4_" gradientUnits="userSpaceOnUse" x1="-8.8237" y1="583.6754" x2="1560.4939" y2="328.3797" gradientTransform="matrix(1 0 0 -1 0 585.4308)">
		<stop  offset="0" style="stop-color:#FFD0FC"/>
		<stop  offset="0.5344" style="stop-color:#C0C5F5"/>
		<stop  offset="1" style="stop-color:#76FAF2"/>
	</linearGradient>
	<path class="st3" d="M655.2,44.1v49.2h78.6v26.1c0,9.9-4.8,13.9-14.7,13.9h-63.9v51.2h92v22.1c0,11.4-6.3,17.5-17.7,17.5h-108
		c-11.4,0-17.7-6.1-17.7-17.5V4.5h143.5v25.6c0,9.9-4.8,13.9-14.7,13.9L655.2,44.1L655.2,44.1z"/>
	
		<linearGradient id="SVGID_5_" gradientUnits="userSpaceOnUse" x1="-5.3384" y1="605.1035" x2="1563.9788" y2="349.808" gradientTransform="matrix(1 0 0 -1 0 585.4308)">
		<stop  offset="0" style="stop-color:#FFD0FC"/>
		<stop  offset="0.5344" style="stop-color:#C0C5F5"/>
		<stop  offset="1" style="stop-color:#76FAF2"/>
	</linearGradient>
	<path class="st4" d="M772.6,224.2V4.5h84.2c22.1,0,39.6,6.6,52,19.5c12.3,13,18.7,29,18.7,48c0,15.5-4.8,28.9-14.2,40.1
		s-18.5,17.2-27.1,18c11.4,8.4,16.2,15.5,20,26.6l12.9,37.8c4.8,13.4,10.1,23.3,16.5,29.7h-55.8c-6.6-6.3-11.4-16.2-14.2-29.9
		c-2.8-13.4-6.1-25.6-9.6-36.3c-3.3-10.4-10.1-20.8-15-20.8h-17v69.2c0,10.4-9.4,17.8-20.3,17.8h-31.1V224.2z M854.2,44.1H824v55.8
		h30.2c11.9,0,21.8-10.4,21.8-27.9S866.1,44.1,854.2,44.1z"/>
	
		<linearGradient id="SVGID_6_" gradientUnits="userSpaceOnUse" x1="2.4538" y1="652.9937" x2="1571.7687" y2="397.6985" gradientTransform="matrix(1 0 0 -1 0 585.4308)">
		<stop  offset="0" style="stop-color:#FFD0FC"/>
		<stop  offset="0.5344" style="stop-color:#C0C5F5"/>
		<stop  offset="1" style="stop-color:#76FAF2"/>
	</linearGradient>
	<path class="st5" d="M1153.7,205.9c-14.7,14.7-33.7,22.1-57.3,22.1c-23.3,0-42.3-7.4-57.3-22.1c-15-14.5-22.3-33-22.3-55.3V4.3
		h51.7v144.5c0,25.4,12.4,39.6,27.9,39.6c16,0,28.4-14.2,28.4-39.6V4.3h51.2v146.3C1175.9,172.9,1168.7,191.4,1153.7,205.9z"/>
	
		<linearGradient id="SVGID_7_" gradientUnits="userSpaceOnUse" x1="5.8495" y1="673.8743" x2="1575.168" y2="418.5786" gradientTransform="matrix(1 0 0 -1 0 585.4308)">
		<stop  offset="0" style="stop-color:#FFD0FC"/>
		<stop  offset="0.5344" style="stop-color:#C0C5F5"/>
		<stop  offset="1" style="stop-color:#76FAF2"/>
	</linearGradient>
	<path class="st6" d="M1206.3,224.2V4.5h83.4c26.1,0,44.6,7.6,55.5,23.1c10.9,15.2,16.5,30.4,16.5,45.6c0,17-5.6,32.7-16.7,47.2
		c-11.2,14.5-29.7,21.6-55.3,21.6h-32v64.4c0,10.4-9.4,17.8-20.3,17.8L1206.3,224.2L1206.3,224.2z M1287.8,44.1h-29.9v58.1h29.9
		c12.4,0,22.3-10.4,22.3-28.9S1299.8,44.1,1287.8,44.1z"/>
	
		<linearGradient id="SVGID_8_" gradientUnits="userSpaceOnUse" x1="9.0905" y1="693.7797" x2="1578.4038" y2="438.4848" gradientTransform="matrix(1 0 0 -1 0 585.4308)">
		<stop  offset="0" style="stop-color:#FFD0FC"/>
		<stop  offset="0.5344" style="stop-color:#C0C5F5"/>
		<stop  offset="1" style="stop-color:#76FAF2"/>
	</linearGradient>
	<path class="st7" d="M1441.8,169.7h-40.1L1393.2,4h57.6L1441.8,169.7z M1432.4,239.2h-38V188h53.5v38
		C1447.9,234.9,1442.8,239.2,1432.4,239.2z"/>
</g>
</svg>
