<?xml version="1.0" encoding="utf-8"?>
<!-- Generator: Adobe Illustrator 25.2.1, SVG Export Plug-In . SVG Version: 6.00 Build 0)  -->
<svg version="1.1" id="Layer_1" xmlns="http://www.w3.org/2000/svg" xmlns:xlink="http://www.w3.org/1999/xlink" x="0px" y="0px"
	 viewBox="0 0 1483.5 674" style="enable-background:new 0 0 1483.5 674;" xml:space="preserve">
<style type="text/css">
	.st0{fill:url(#SVGID_1_);stroke:#21136A;stroke-width:1.5;stroke-linecap:round;stroke-linejoin:round;stroke-miterlimit:10;}
	.st1{fill:url(#SVGID_2_);stroke:#21136A;stroke-width:1.5;stroke-linecap:round;stroke-linejoin:round;stroke-miterlimit:10;}
	.st2{fill:url(#SVGID_3_);stroke:#21136A;stroke-width:1.5;stroke-linecap:round;stroke-linejoin:round;stroke-miterlimit:10;}
	.st3{fill:url(#SVGID_4_);stroke:#21136A;stroke-width:1.5;stroke-linecap:round;stroke-linejoin:round;stroke-miterlimit:10;}
	.st4{fill:url(#SVGID_5_);stroke:#21136A;stroke-width:1.5;stroke-linecap:round;stroke-linejoin:round;stroke-miterlimit:10;}
	.st5{fill:url(#SVGID_6_);stroke:#21136A;stroke-width:1.5;stroke-linecap:round;stroke-linejoin:round;stroke-miterlimit:10;}
	.st6{fill:url(#SVGID_7_);stroke:#21136A;stroke-width:1.5;stroke-linecap:round;stroke-linejoin:round;stroke-miterlimit:10;}
	.st7{fill:url(#SVGID_8_);stroke:#21136A;stroke-width:1.5;stroke-linecap:round;stroke-linejoin:round;stroke-miterlimit:10;}
	.st8{fill:#FFD0FC;}
	.st9{fill:#21136A;}
	.st10{fill:#FFFFFF;}
</style>
<g>
	<g>
		<linearGradient id="SVGID_1_" gradientUnits="userSpaceOnUse" x1="-9.085" y1="102.5779" x2="1560.2367" y2="357.8742">
			<stop  offset="0" style="stop-color:#FFD0FC"/>
			<stop  offset="0.5344" style="stop-color:#C0C5F5"/>
			<stop  offset="1" style="stop-color:#76FAF2"/>
		</linearGradient>
		<path class="st0" d="M16.9,224.1V4.5h83.4c26.1,0,44.6,7.6,55.5,23.1c10.9,15.2,16.5,30.4,16.5,45.6c0,17-5.6,32.7-16.7,47.2
			c-11.2,14.5-29.7,21.6-55.3,21.6h-32v64.4c0,10.4-9.4,17.8-20.3,17.8H16.9z M98.2,44.1H68.3v58.1h29.9c12.4,0,22.3-10.4,22.3-28.9
			S110.4,44.1,98.2,44.1z"/>
		<linearGradient id="SVGID_2_" gradientUnits="userSpaceOnUse" x1="-3.8947" y1="70.6766" x2="1565.4261" y2="325.9728">
			<stop  offset="0" style="stop-color:#FFD0FC"/>
			<stop  offset="0.5344" style="stop-color:#C0C5F5"/>
			<stop  offset="1" style="stop-color:#76FAF2"/>
		</linearGradient>
		<path class="st1" d="M342.6,152.9c-1.3,22.1-8.6,40.1-21.8,54c-12.9,14.2-31.4,21.3-55.5,21.3c-21.6,0-39.6-6.8-54.3-20.3
			c-14.5-13.4-22.3-31.7-23.6-55.3c-0.8-11.9-1-24.8-1-38.5c0-13.9,0.2-26.4,1-37.8C188.7,54.3,196.6,36,211,22
			c14.5-14.2,32.7-21.3,54.3-21.3c22.6,0,40.8,7.4,54.5,21.8c13.9,14.5,21.5,32.5,22.8,54C344.4,100.7,344.4,127.8,342.6,152.9z
			 M293.2,111.8c0.2-13.4,0-23.8-0.3-31.4c-0.5-10.4-3-19.8-7.9-27.9c-4.8-8.1-11.4-12.2-19.8-12.2c-15.5,0-26.6,15.7-27.9,40.1
			c-0.5,8.6-0.8,20.3-0.8,35.2l0.8,32.7c1.3,24.3,11.9,40.3,27.9,40.3c17,0,25.1-13.7,26.9-41.3C292.9,136.9,293.2,125,293.2,111.8z
			"/>
		<linearGradient id="SVGID_3_" gradientUnits="userSpaceOnUse" x1="2.2425" y1="32.9429" x2="1571.5605" y2="288.2386">
			<stop  offset="0" style="stop-color:#FFD0FC"/>
			<stop  offset="0.5344" style="stop-color:#C0C5F5"/>
			<stop  offset="1" style="stop-color:#76FAF2"/>
		</linearGradient>
		<path class="st2" d="M430.6,115.4L458.2,4.5h41.6l28.1,111.8c0.8,1.8,1,9.9,1.3,11.9c0.8-2.3,1-10.4,1.3-12.4L554.6,4.5h53.2
			l-49.7,204.6c-2.3,10.9-11.4,16-22.6,16h-26.1l-28.7-110c-0.2-2.8-1-10.4-1.8-12.7c-0.8,2.8-1.3,10.6-2,13.4l-24.3,93.6
			c-2.8,10.4-11.7,15.7-22.6,15.7h-26.4L350.2,4.5h53.5L427,114.3c0.8,2.8,1.3,11.2,1.5,14.2C429.3,125.8,429.8,117.6,430.6,115.4z"
			/>
		<linearGradient id="SVGID_4_" gradientUnits="userSpaceOnUse" x1="7.3175" y1="1.7596" x2="1576.635" y2="257.0553">
			<stop  offset="0" style="stop-color:#FFD0FC"/>
			<stop  offset="0.5344" style="stop-color:#C0C5F5"/>
			<stop  offset="1" style="stop-color:#76FAF2"/>
		</linearGradient>
		<path class="st3" d="M671.4,44.1v49.2H750v26.1c0,9.9-4.8,13.9-14.7,13.9h-63.9v51.2h92v22.1c0,11.4-6.3,17.5-17.7,17.5h-108
			c-11.4,0-17.7-6.1-17.7-17.5V4.5h143.5v25.6c0,9.9-4.8,13.9-14.7,13.9H671.4z"/>
		<linearGradient id="SVGID_5_" gradientUnits="userSpaceOnUse" x1="10.8104" y1="-19.715" x2="1580.1274" y2="235.5805">
			<stop  offset="0" style="stop-color:#FFD0FC"/>
			<stop  offset="0.5344" style="stop-color:#C0C5F5"/>
			<stop  offset="1" style="stop-color:#76FAF2"/>
		</linearGradient>
		<path class="st4" d="M788.8,224.1V4.5h84.2c22.1,0,39.6,6.6,52,19.5C937.3,37,943.7,53,943.7,72c0,15.5-4.8,28.9-14.2,40.1
			c-9.4,11.2-18.5,17.2-27.1,18c11.4,8.4,16.2,15.5,20,26.6l12.9,37.8c4.8,13.4,10.1,23.3,16.5,29.7H896
			c-6.6-6.3-11.4-16.2-14.2-29.9c-2.8-13.4-6.1-25.6-9.6-36.3c-3.3-10.4-10.1-20.8-15-20.8h-17v69.2c0,10.4-9.4,17.8-20.3,17.8
			H788.8z M870.4,44.1h-30.2v55.8h30.2c11.9,0,21.8-10.4,21.8-27.9C892.2,54.5,882.3,44.1,870.4,44.1z"/>
		<linearGradient id="SVGID_6_" gradientUnits="userSpaceOnUse" x1="18.6073" y1="-67.6346" x2="1587.9221" y2="187.6606">
			<stop  offset="0" style="stop-color:#FFD0FC"/>
			<stop  offset="0.5344" style="stop-color:#C0C5F5"/>
			<stop  offset="1" style="stop-color:#76FAF2"/>
		</linearGradient>
		<path class="st5" d="M1169.8,205.9c-14.7,14.7-33.7,22.1-57.3,22.1c-23.3,0-42.3-7.4-57.3-22.1c-15-14.5-22.3-33-22.3-55.3V4.3
			h51.7v144.5c0,25.4,12.4,39.6,27.9,39.6c16,0,28.4-14.2,28.4-39.6V4.3h51.2v146.3C1192.1,172.9,1184.8,191.4,1169.8,205.9z"/>
		<linearGradient id="SVGID_7_" gradientUnits="userSpaceOnUse" x1="21.9998" y1="-88.4955" x2="1591.3182" y2="166.8002">
			<stop  offset="0" style="stop-color:#FFD0FC"/>
			<stop  offset="0.5344" style="stop-color:#C0C5F5"/>
			<stop  offset="1" style="stop-color:#76FAF2"/>
		</linearGradient>
		<path class="st6" d="M1222.5,224.1V4.5h83.4c26.1,0,44.6,7.6,55.5,23.1c10.9,15.2,16.5,30.4,16.5,45.6c0,17-5.6,32.7-16.7,47.2
			c-11.2,14.5-29.7,21.6-55.3,21.6h-32v64.4c0,10.4-9.4,17.8-20.3,17.8H1222.5z M1303.9,44.1H1274v58.1h29.9
			c12.4,0,22.3-10.4,22.3-28.9S1316,44.1,1303.9,44.1z"/>
		<linearGradient id="SVGID_8_" gradientUnits="userSpaceOnUse" x1="25.2361" y1="-108.3717" x2="1594.5494" y2="146.9232">
			<stop  offset="0" style="stop-color:#FFD0FC"/>
			<stop  offset="0.5344" style="stop-color:#C0C5F5"/>
			<stop  offset="1" style="stop-color:#76FAF2"/>
		</linearGradient>
		<path class="st7" d="M1458,169.6h-40.1L1409.3,4h57.6L1458,169.6z M1448.6,239.1h-38v-51.2h53.5v38
			C1464.1,234.8,1459,239.1,1448.6,239.1z"/>
	</g>
	<g>
		<g>
			<polygon class="st8" points="150,290.6 83.3,290.6 16.7,357.3 16.7,423.9 50,457.3 50,490.6 200,640.6 200,340.6 			"/>
			<polygon class="st8" points="383.4,490.6 383.4,457.3 416.7,423.9 416.7,357.3 350,290.6 283.4,290.6 216.7,357.3 200,340.6 
				200,640.6 216.7,657.3 			"/>
			<g>
				<rect x="66.7" y="273.9" class="st9" width="33.3" height="33.3"/>
				<rect x="33.3" y="307.3" class="st9" width="33.3" height="33.3"/>
				<rect y="340.6" class="st9" width="33.3" height="33.3"/>
				<rect y="373.9" class="st9" width="33.3" height="33.3"/>
				<rect y="407.3" class="st9" width="33.3" height="33.3"/>
				<rect x="33.3" y="440.6" class="st9" width="33.3" height="33.3"/>
				<rect x="33.3" y="474" class="st9" width="33.3" height="33.3"/>
				<rect x="66.7" y="507.3" class="st9" width="33.3" height="33.3"/>
				<rect x="100" y="540.6" class="st9" width="33.3" height="33.3"/>
				<rect x="133.3" y="574" class="st9" width="33.3" height="33.3"/>
				<rect x="166.7" y="607.3" class="st9" width="33.3" height="33.3"/>
				<rect x="200" y="640.6" class="st9" width="33.3" height="33.3"/>
				<rect x="100" y="273.9" class="st9" width="33.3" height="33.3"/>
				<rect x="133.3" y="273.9" class="st9" width="33.3" height="33.3"/>
				<rect x="166.7" y="307.3" class="st9" width="33.3" height="33.3"/>
				
					<rect x="333.4" y="273.9" transform="matrix(-1 -1.224647e-16 1.224647e-16 -1 700.075 581.1979)" class="st9" width="33.3" height="33.3"/>
				
					<rect x="366.7" y="307.3" transform="matrix(-1 -1.224647e-16 1.224647e-16 -1 766.7493 647.8716)" class="st9" width="33.3" height="33.3"/>
				
					<rect x="400" y="340.6" transform="matrix(-1 -1.224647e-16 1.224647e-16 -1 833.4237 714.5453)" class="st9" width="33.3" height="33.3"/>
				
					<rect x="400" y="373.9" transform="matrix(-1 -1.224647e-16 1.224647e-16 -1 833.4237 781.219)" class="st9" width="33.3" height="33.3"/>
				
					<rect x="400" y="407.3" transform="matrix(-1 -1.224647e-16 1.224647e-16 -1 833.4237 847.8926)" class="st9" width="33.3" height="33.3"/>
				
					<rect x="366.7" y="440.6" transform="matrix(-1 -1.224647e-16 1.224647e-16 -1 766.7493 914.5663)" class="st9" width="33.3" height="33.3"/>
				
					<rect x="366.7" y="474" transform="matrix(-1 -1.224647e-16 1.224647e-16 -1 766.7493 981.2407)" class="st9" width="33.3" height="33.3"/>
				
					<rect x="333.4" y="507.3" transform="matrix(-1 -1.224647e-16 1.224647e-16 -1 700.075 1047.915)" class="st9" width="33.3" height="33.3"/>
				
					<rect x="300" y="540.6" transform="matrix(-1 -1.224647e-16 1.224647e-16 -1 633.4013 1114.5887)" class="st9" width="33.3" height="33.3"/>
				
					<rect x="266.7" y="574" transform="matrix(-1 -1.224647e-16 1.224647e-16 -1 566.7277 1181.2625)" class="st9" width="33.3" height="33.3"/>
				
					<rect x="233.4" y="607.3" transform="matrix(-1 -1.224647e-16 1.224647e-16 -1 500.054 1247.936)" class="st9" width="33.3" height="33.3"/>
				
					<rect x="300" y="273.9" transform="matrix(-1 -1.224647e-16 1.224647e-16 -1 633.4013 581.1979)" class="st9" width="33.3" height="33.3"/>
				
					<rect x="266.7" y="273.9" transform="matrix(-1 -1.224647e-16 1.224647e-16 -1 566.7277 581.1979)" class="st9" width="33.3" height="33.3"/>
				
					<rect x="233.4" y="307.3" transform="matrix(-1 -1.224647e-16 1.224647e-16 -1 500.054 647.8716)" class="st9" width="33.3" height="33.3"/>
				<rect x="200" y="340.6" class="st9" width="33.3" height="33.3"/>
			</g>
		</g>
		<g>
			<polygon class="st8" points="675.1,290.6 608.4,290.6 541.8,357.3 541.8,423.9 575.1,457.3 575.1,490.6 725.1,640.6 725.1,340.6 
							"/>
			<polygon class="st10" points="908.5,490.6 908.5,457.3 941.8,423.9 941.8,357.3 875.1,290.6 808.4,290.6 741.8,357.3 
				725.1,340.6 725.1,640.6 741.8,657.3 			"/>
			<g>
				<rect x="591.8" y="273.9" class="st9" width="33.3" height="33.3"/>
				<rect x="558.4" y="307.3" class="st9" width="33.3" height="33.3"/>
				<rect x="525.1" y="340.6" class="st9" width="33.3" height="33.3"/>
				<rect x="525.1" y="373.9" class="st9" width="33.3" height="33.3"/>
				<rect x="525.1" y="407.3" class="st9" width="33.3" height="33.3"/>
				<rect x="558.4" y="440.6" class="st9" width="33.3" height="33.3"/>
				<rect x="558.4" y="474" class="st9" width="33.3" height="33.3"/>
				<rect x="591.8" y="507.3" class="st9" width="33.3" height="33.3"/>
				<rect x="625.1" y="540.6" class="st9" width="33.3" height="33.3"/>
				<rect x="658.4" y="574" class="st9" width="33.3" height="33.3"/>
				<rect x="691.8" y="607.3" class="st9" width="33.3" height="33.3"/>
				<rect x="725.1" y="640.6" class="st9" width="33.3" height="33.3"/>
				<rect x="625.1" y="273.9" class="st9" width="33.3" height="33.3"/>
				<rect x="658.4" y="273.9" class="st9" width="33.3" height="33.3"/>
				<rect x="691.8" y="307.3" class="st9" width="33.3" height="33.3"/>
				
					<rect x="858.4" y="273.9" transform="matrix(-1 -1.224647e-16 1.224647e-16 -1 1750.2351 581.1979)" class="st9" width="33.3" height="33.3"/>
				
					<rect x="891.8" y="307.3" transform="matrix(-1 -1.224647e-16 1.224647e-16 -1 1816.9095 647.8716)" class="st9" width="33.3" height="33.3"/>
				
					<rect x="925.1" y="340.6" transform="matrix(-1 -1.224647e-16 1.224647e-16 -1 1883.5839 714.5453)" class="st9" width="33.3" height="33.3"/>
				
					<rect x="925.1" y="373.9" transform="matrix(-1 -1.224647e-16 1.224647e-16 -1 1883.5839 781.219)" class="st9" width="33.3" height="33.3"/>
				
					<rect x="925.1" y="407.3" transform="matrix(-1 -1.224647e-16 1.224647e-16 -1 1883.5839 847.8926)" class="st9" width="33.3" height="33.3"/>
				
					<rect x="891.8" y="440.6" transform="matrix(-1 -1.224647e-16 1.224647e-16 -1 1816.9095 914.5663)" class="st9" width="33.3" height="33.3"/>
				
					<rect x="891.8" y="474" transform="matrix(-1 -1.224647e-16 1.224647e-16 -1 1816.9095 981.2407)" class="st9" width="33.3" height="33.3"/>
				
					<rect x="858.4" y="507.3" transform="matrix(-1 -1.224647e-16 1.224647e-16 -1 1750.2351 1047.915)" class="st9" width="33.3" height="33.3"/>
				
					<rect x="825.1" y="540.6" transform="matrix(-1 -1.224647e-16 1.224647e-16 -1 1683.5615 1114.5887)" class="st9" width="33.3" height="33.3"/>
				
					<rect x="791.8" y="574" transform="matrix(-1 -1.224647e-16 1.224647e-16 -1 1616.8878 1181.2625)" class="st9" width="33.3" height="33.3"/>
				
					<rect x="758.4" y="607.3" transform="matrix(-1 -1.224647e-16 1.224647e-16 -1 1550.2141 1247.936)" class="st9" width="33.3" height="33.3"/>
				
					<rect x="825.1" y="273.9" transform="matrix(-1 -1.224647e-16 1.224647e-16 -1 1683.5615 581.1979)" class="st9" width="33.3" height="33.3"/>
				
					<rect x="791.8" y="273.9" transform="matrix(-1 -1.224647e-16 1.224647e-16 -1 1616.8878 581.1979)" class="st9" width="33.3" height="33.3"/>
				
					<rect x="758.4" y="307.3" transform="matrix(-1 -1.224647e-16 1.224647e-16 -1 1550.2141 647.8716)" class="st9" width="33.3" height="33.3"/>
				<rect x="725.1" y="340.6" class="st9" width="33.3" height="33.3"/>
			</g>
		</g>
		<g>
			<polygon class="st8" points="1200.2,290.6 1133.5,290.6 1066.8,357.3 1066.8,423.9 1100.2,457.3 1100.2,490.6 1250.2,640.6 
				1250.2,340.6 			"/>
			<polygon class="st10" points="1433.5,490.6 1433.5,457.3 1466.9,423.9 1466.9,357.3 1400.2,290.6 1333.5,290.6 1266.8,357.3 
				1250.2,340.6 1250.2,640.6 1266.8,657.3 			"/>
			<g>
				<rect x="1116.8" y="273.9" class="st9" width="33.3" height="33.3"/>
				<rect x="1083.5" y="307.3" class="st9" width="33.3" height="33.3"/>
				<rect x="1050.2" y="340.6" class="st9" width="33.3" height="33.3"/>
				<rect x="1050.2" y="373.9" class="st9" width="33.3" height="33.3"/>
				<rect x="1050.2" y="407.3" class="st9" width="33.3" height="33.3"/>
				<rect x="1083.5" y="440.6" class="st9" width="33.3" height="33.3"/>
				<rect x="1083.5" y="474" class="st9" width="33.3" height="33.3"/>
				<rect x="1116.8" y="507.3" class="st9" width="33.3" height="33.3"/>
				<rect x="1150.2" y="540.6" class="st9" width="33.3" height="33.3"/>
				<rect x="1183.5" y="574" class="st9" width="33.3" height="33.3"/>
				<rect x="1216.8" y="607.3" class="st9" width="33.3" height="33.3"/>
				<rect x="1250.2" y="640.6" class="st9" width="33.3" height="33.3"/>
				<rect x="1150.2" y="273.9" class="st9" width="33.3" height="33.3"/>
				<rect x="1183.5" y="273.9" class="st9" width="33.3" height="33.3"/>
				<rect x="1216.8" y="307.3" class="st9" width="33.3" height="33.3"/>
				
					<rect x="1383.5" y="273.9" transform="matrix(-1 -1.224647e-16 1.224647e-16 -1 2800.396 581.1979)" class="st9" width="33.3" height="33.3"/>
				
					<rect x="1416.9" y="307.3" transform="matrix(-1 -1.224647e-16 1.224647e-16 -1 2867.0703 647.8716)" class="st9" width="33.3" height="33.3"/>
				
					<rect x="1450.2" y="340.6" transform="matrix(-1 -1.224647e-16 1.224647e-16 -1 2933.7441 714.5453)" class="st9" width="33.3" height="33.3"/>
				
					<rect x="1450.2" y="373.9" transform="matrix(-1 -1.224647e-16 1.224647e-16 -1 2933.7441 781.219)" class="st9" width="33.3" height="33.3"/>
				
					<rect x="1450.2" y="407.3" transform="matrix(-1 -1.224647e-16 1.224647e-16 -1 2933.7441 847.8926)" class="st9" width="33.3" height="33.3"/>
				
					<rect x="1416.9" y="440.6" transform="matrix(-1 -1.224647e-16 1.224647e-16 -1 2867.0703 914.5663)" class="st9" width="33.3" height="33.3"/>
				
					<rect x="1416.9" y="474" transform="matrix(-1 -1.224647e-16 1.224647e-16 -1 2867.0703 981.2407)" class="st9" width="33.3" height="33.3"/>
				
					<rect x="1383.5" y="507.3" transform="matrix(-1 -1.224647e-16 1.224647e-16 -1 2800.396 1047.915)" class="st9" width="33.3" height="33.3"/>
				
					<rect x="1350.2" y="540.6" transform="matrix(-1 -1.224647e-16 1.224647e-16 -1 2733.7217 1114.5887)" class="st9" width="33.3" height="33.3"/>
				
					<rect x="1316.9" y="574" transform="matrix(-1 -1.224647e-16 1.224647e-16 -1 2667.0481 1181.2625)" class="st9" width="33.3" height="33.3"/>
				
					<rect x="1283.5" y="607.3" transform="matrix(-1 -1.224647e-16 1.224647e-16 -1 2600.3743 1247.936)" class="st9" width="33.3" height="33.3"/>
				
					<rect x="1350.2" y="273.9" transform="matrix(-1 -1.224647e-16 1.224647e-16 -1 2733.7217 581.1979)" class="st9" width="33.3" height="33.3"/>
				
					<rect x="1316.9" y="273.9" transform="matrix(-1 -1.224647e-16 1.224647e-16 -1 2667.0481 581.1979)" class="st9" width="33.3" height="33.3"/>
				
					<rect x="1283.5" y="307.3" transform="matrix(-1 -1.224647e-16 1.224647e-16 -1 2600.3743 647.8716)" class="st9" width="33.3" height="33.3"/>
				<rect x="1250.2" y="340.6" class="st9" width="33.3" height="33.3"/>
			</g>
		</g>
	</g>
</g>
</svg>
