<?xml version="1.0" encoding="utf-8"?>
<!-- Generator: Adobe Illustrator 25.2.1, SVG Export Plug-In . SVG Version: 6.00 Build 0)  -->
<svg version="1.1" id="Layer_1" xmlns="http://www.w3.org/2000/svg" xmlns:xlink="http://www.w3.org/1999/xlink" x="0px" y="0px"
	 viewBox="0 0 613.8 405.3" style="enable-background:new 0 0 613.8 405.3;" xml:space="preserve">
<style type="text/css">
	.st0{fill:#6A43B8;}
	.st1{fill:#BF8FB5;}
	.st2{fill:#FFFFFF;}
	.st3{fill:#FFDAF7;}
</style>
<g>
	<g>
		<rect class="st0" width="613.8" height="275.4"/>
		<g>
			<g>
				<polygon class="st1" points="605.9,267.6 589.8,251.4 590.2,23.6 605.9,7.9 				"/>
				<polygon class="st1" points="589.8,251.4 605.9,267.6 7.9,267.6 26.5,248.9 				"/>
				<polygon class="st2" points="7.9,7.9 24,24 23.6,251.8 7.9,267.6 				"/>
				<polygon class="st2" points="24,24 7.9,7.9 605.9,7.9 587.3,26.5 				"/>
			</g>
			<rect x="15.7" y="15.7" class="st3" width="582.3" height="243.9"/>
			<path class="st0" d="M588.6,250.2H573v-4.7l15.6,0.1V250.2z M559.9,250.2h-13.2v-4.7h13.2V250.2z M533.5,250.2h-13.2v-4.7h13.2
				V250.2z M507.1,250.2h-13.2v-4.7h13.2V250.2z M480.8,250.2h-13.2v-4.7h13.2V250.2z M454.4,250.2h-13.2v-4.7h13.2V250.2z
				 M428,250.2h-13.2v-4.7H428V250.2z M401.7,250.2h-13.2v-4.7h13.2V250.2z M375.3,250.2h-13.2v-4.7h13.2V250.2z M348.9,250.2h-13.2
				v-4.7h13.2V250.2z M322.6,250.2h-13.2v-4.7h13.2V250.2z M296.2,250.2H283v-4.7h13.2V250.2z M269.8,250.2h-13.2v-4.7h13.2V250.2z
				 M243.5,250.2h-13.2v-4.7h13.2V250.2z M217.1,250.2h-13.2v-4.7h13.2V250.2z M190.7,250.2h-13.2v-4.7h13.2V250.2z M164.4,250.2
				h-13.2v-4.7h13.2V250.2z M138,250.2h-13.2v-4.7H138V250.2z M111.6,250.2H98.4v-4.7h13.2V250.2z M85.3,250.2H72.1v-4.7h13.2V250.2
				z M58.9,250.2H45.7v-4.7h13.2V250.2z M32.5,250.2h-7.3v-10.6h4.7v5.9h2.6V250.2z M588.6,232.4h-4.7v-13.2h4.7V232.4z M29.9,226.5
				h-4.7v-13.2h4.7V226.5z M588.6,206h-4.7v-13.2h4.7V206z M29.9,200.1h-4.7v-13.2h4.7V200.1z M588.6,179.7h-4.7v-13.2h4.7V179.7z
				 M29.9,173.7h-4.7v-13.2h4.7V173.7z M588.6,153.3h-4.7v-13.2h4.7V153.3z M29.9,147.3h-4.7v-13.2h4.7V147.3z M588.6,126.9h-4.7
				v-13.2h4.7V126.9z M29.9,121h-4.7v-13.2h4.7V121z M588.6,100.6h-4.7V87.4h4.7V100.6z M29.9,94.6h-4.7V81.4h4.7V94.6z M588.6,74.2
				h-4.7V61h4.7V74.2z M29.9,68.3h-4.7V55.1h4.7V68.3z M588.6,47.8h-4.7V34.7h4.7V47.8z M29.9,41.9h-4.7V28.7h4.7V41.9z M580.1,29.9
				h-13.2v-4.7h13.2V29.9z M553.8,29.9h-13.2v-4.7h13.2V29.9z M527.4,29.9h-13.2v-4.7h13.2V29.9z M501,29.9h-13.2v-4.7H501V29.9z
				 M474.7,29.9h-13.2v-4.7h13.2V29.9z M448.3,29.9h-13.2v-4.7h13.2V29.9z M421.9,29.9h-13.2v-4.7h13.2V29.9z M395.6,29.9h-13.2
				v-4.7h13.2V29.9z M369.2,29.9H356v-4.7h13.2V29.9z M342.8,29.9h-13.2v-4.7h13.2V29.9z M316.5,29.9h-13.2v-4.7h13.2V29.9z
				 M290.1,29.9h-13.2v-4.7h13.2V29.9z M263.7,29.9h-13.2v-4.7h13.2V29.9z M237.4,29.9h-13.2v-4.7h13.2V29.9z M211,29.9h-13.2v-4.7
				H211V29.9z M184.6,29.9h-13.2v-4.7h13.2V29.9z M158.3,29.9h-13.2v-4.7h13.2V29.9z M131.9,29.9h-13.2v-4.7h13.2V29.9z M105.5,29.9
				H92.4v-4.7h13.2V29.9z M79.2,29.9H66v-4.7h13.2V29.9z M52.8,29.9H39.6v-4.7h13.2V29.9z"/>
		</g>
	</g>
	<g>
		<path class="st0" d="M188.8,106.7v-12h-17.9v29.9h20.9v6h9v47.8h-12v6h-17.9v-6h-12v-20.9h12v15h17.9v-35.9h-20.9v-6h-9V88.8h12
			v-6h17.9v6h12v17.9H188.8z"/>
		<path class="st0" d="M260.6,94.7h-17.9v89.7h-12V94.7h-17.9v-12h47.8V94.7z"/>
		<path class="st0" d="M310.6,112.7v71.8h-12v-41.9h-17.9v41.9h-12v-71.8h6V94.7h6v-12h17.9v12h6v17.9H310.6z M298.7,112.7h-6V94.7
			h-6v17.9h-6v17.9h17.9V112.7z"/>
		<path class="st0" d="M366,130.6v9h6v44.9h-12v-44.9H342v44.9h-12V82.8H360v6h12v41.9H366z M360,127.6V94.7H342v32.9H360z"/>
		<path class="st0" d="M433.2,94.7h-17.9v89.7h-12V94.7h-17.9v-12h47.8V94.7z"/>
	</g>
	<g>
		<polygon class="st2" points="496.3,212.5 504.2,220.3 559.3,275.4 598.6,314.8 598.6,322.6 559.3,322.6 559.3,338.4 567.1,346.3 
			567.1,354.1 575,362 575,369.9 582.9,377.7 582.9,393.5 575,401.3 567.1,401.3 559.3,393.5 559.3,385.6 551.4,377.7 551.4,369.9 
			543.5,362 543.5,354.1 535.7,346.3 527.8,346.3 504.2,369.9 496.3,369.9 		"/>
		<g>
			<rect x="492.4" y="208.5" class="st0" width="7.9" height="165.3"/>
			<rect x="500.3" y="216.4" class="st0" width="7.9" height="7.9"/>
			<rect x="508.1" y="224.3" class="st0" width="7.9" height="7.9"/>
			<rect x="516" y="232.2" class="st0" width="7.9" height="7.9"/>
			<rect x="523.9" y="240" class="st0" width="7.9" height="7.9"/>
			<rect x="531.7" y="247.9" class="st0" width="7.9" height="7.9"/>
			<rect x="539.6" y="255.8" class="st0" width="7.9" height="7.9"/>
			<rect x="547.5" y="263.6" class="st0" width="7.9" height="7.9"/>
			<rect x="555.3" y="271.5" class="st0" width="7.9" height="7.9"/>
			<rect x="563.2" y="279.4" class="st0" width="7.9" height="7.9"/>
			<rect x="571.1" y="287.2" class="st0" width="7.9" height="7.9"/>
			<rect x="578.9" y="295.1" class="st0" width="7.9" height="7.9"/>
			<rect x="586.8" y="303" class="st0" width="7.9" height="7.9"/>
			<rect x="594.7" y="310.8" class="st0" width="7.9" height="7.9"/>
			<rect x="500.3" y="365.9" class="st0" width="7.9" height="7.9"/>
			<rect x="508.1" y="358.1" class="st0" width="7.9" height="7.9"/>
			<rect x="516" y="350.2" class="st0" width="7.9" height="7.9"/>
			<rect x="523.9" y="342.3" class="st0" width="7.9" height="7.9"/>
			<rect x="555.3" y="318.7" class="st0" width="47.2" height="7.9"/>
			<rect x="531.7" y="334.5" class="st0" width="7.9" height="7.9"/>
			<rect x="531.7" y="342.3" class="st0" width="7.9" height="7.9"/>
			<rect x="555.3" y="326.6" class="st0" width="7.9" height="15.7"/>
			<rect x="539.6" y="350.2" class="st0" width="7.9" height="15.7"/>
			<rect x="547.5" y="365.9" class="st0" width="7.9" height="15.7"/>
			<rect x="555.3" y="381.7" class="st0" width="7.9" height="15.7"/>
			<rect x="563.2" y="342.3" class="st0" width="7.9" height="15.7"/>
			<rect x="571.1" y="358.1" class="st0" width="7.9" height="15.7"/>
			<rect x="563.2" y="397.4" class="st0" width="15.7" height="7.9"/>
			<rect x="578.9" y="373.8" class="st0" width="7.9" height="23.6"/>
		</g>
	</g>
</g>
</svg>
