<?xml version="1.0" encoding="utf-8"?>
<!-- Generator: Adobe Illustrator 25.2.1, SVG Export Plug-In . SVG Version: 6.00 Build 0)  -->
<svg version="1.1" id="Layer_1" xmlns="http://www.w3.org/2000/svg" xmlns:xlink="http://www.w3.org/1999/xlink" x="0px" y="0px"
	 viewBox="0 0 603.7 959" style="enable-background:new 0 0 603.7 959;" xml:space="preserve">
<style type="text/css">
	.st0{fill:#FFFFFF;}
	.st1{fill:#BF8FB5;}
	.st2{fill:#6A43B8;}
</style>
<g>
	<g>
		<path class="st0" d="M87.2,942.1V959H38.6v-16.9h16.9v-93H38.6v-16.9h16.9v-16.9h16.9v126.8H87.2z"/>
		<path class="st0" d="M163.3,874.5h-16.9v-42.3H121v21.1h-16.9v-29.6H121v-8.5h25.4v8.5h16.9V874.5z M167.5,942.1V959h-63.4v-16.9
			h8.5V921h8.5v-25.4h8.5v-21.1h16.9v21.1h-8.5V921h-8.5v21.1H167.5z"/>
		<path class="st0" d="M232,878.7v8.5h12.7v63.4h-16.9v8.5h-25.4v-8.5h-16.9v-33.8h16.9v25.4h25.4v-50.7h-25.4v-16.9h25.4v-42.3
			h-25.4v21.1h-16.9v-29.6h16.9v-8.5h25.4v8.5h16.9v54.9H232z"/>
		<path class="st0" d="M274.2,937.9h21.1V959h-21.1V937.9z"/>
		<path class="st0" d="M346.1,882.9v59.2H363V959h-25.4v-8.5h-8.5v-67.6h-12.7V866h12.7v-25.4h16.9V866h21.1v16.9H346.1z"/>
		<path class="st0" d="M427.4,899.8v25.4h8.5v16.9h8.5V959h-18v-16.9h-8.5v-16.9h-8.5v16.9H401V959h-18v-16.9h8.5v-16.9h8.5v-25.4
			h-8.5v-16.9H383V866h18v16.9h8.5v16.9h8.5v-16.9h8.5V866h18v16.9h-8.5v16.9H427.4z"/>
		<path class="st0" d="M488.7,882.9v59.2h16.9V959h-25.4v-8.5h-8.5v-67.6h-12.7V866h12.7v-25.4h16.9V866h21.1v16.9H488.7z"/>
	</g>
	<g>
		<polygon class="st0" points="603.7,211.3 392.4,0 0,0 0,754.6 603.7,754.6 		"/>
		<g>
			<rect class="st1" width="422.6" height="30.2"/>
			<rect x="452.8" y="60.4" class="st2" width="30.2" height="30.2"/>
			<rect x="482.9" y="90.6" class="st2" width="30.2" height="30.2"/>
			<rect x="513.1" y="120.7" class="st2" width="30.2" height="30.2"/>
			<rect x="573.5" y="181.1" class="st2" width="30.2" height="573.5"/>
			<rect x="422.6" y="30.2" class="st2" width="30.2" height="30.2"/>
			<rect x="543.3" y="150.9" class="st2" width="30.2" height="30.2"/>
			<rect x="392.4" y="181.1" class="st2" width="211.3" height="30.2"/>
			<rect x="392.4" class="st1" width="30.2" height="211.3"/>
			<rect class="st1" width="30.2" height="754.6"/>
			<rect y="724.4" class="st2" width="603.7" height="30.2"/>
			<rect x="90.6" y="271.7" class="st2" width="422.6" height="30.2"/>
			<rect x="90.6" y="362.2" class="st2" width="422.6" height="30.2"/>
			<rect x="90.6" y="543.3" class="st2" width="422.6" height="30.2"/>
			<rect x="90.6" y="452.8" class="st2" width="422.6" height="30.2"/>
		</g>
	</g>
</g>
</svg>
