<?xml version="1.0" encoding="utf-8"?>
<!-- Generator: Adobe Illustrator 25.0.1, SVG Export Plug-In . SVG Version: 6.00 Build 0)  -->
<svg version="1.1" id="Layer_1" xmlns="http://www.w3.org/2000/svg" xmlns:xlink="http://www.w3.org/1999/xlink" x="0px" y="0px"
	 viewBox="0 0 603.7 754.6" style="enable-background:new 0 0 603.7 754.6;" xml:space="preserve">
<style type="text/css">
	.st0{fill:#FFFFFF;}
	.st1{fill:#BF8FB5;}
	.st2{fill:#6A43B8;}
</style>
<g>
	<g>
		<polygon class="st0" points="603.7,211.3 392.4,0 0,0 0,754.6 603.7,754.6 		"/>
		<g>
			<rect class="st1" width="422.6" height="30.2"/>
			<rect x="452.8" y="60.4" class="st2" width="30.2" height="30.2"/>
			<rect x="482.9" y="90.6" class="st2" width="30.2" height="30.2"/>
			<rect x="513.1" y="120.7" class="st2" width="30.2" height="30.2"/>
			<rect x="573.5" y="181.1" class="st2" width="30.2" height="573.5"/>
			<rect x="422.6" y="30.2" class="st2" width="30.2" height="30.2"/>
			<rect x="543.3" y="150.9" class="st2" width="30.2" height="30.2"/>
			<rect x="392.4" y="181.1" class="st2" width="211.3" height="30.2"/>
			<rect x="392.4" class="st1" width="30.2" height="211.3"/>
			<rect class="st1" width="30.2" height="754.6"/>
			<rect y="724.4" class="st2" width="603.7" height="30.2"/>
			<rect x="90.6" y="271.7" class="st2" width="422.6" height="30.2"/>
			<rect x="90.6" y="362.2" class="st2" width="422.6" height="30.2"/>
			<rect x="90.6" y="543.3" class="st2" width="422.6" height="30.2"/>
			<rect x="90.6" y="452.8" class="st2" width="422.6" height="30.2"/>
		</g>
	</g>
</g>
</svg>
